<svg width="20.000000" height="14.000000" viewBox="0 0 20 14" fill="none" xmlns="http://www.w3.org/2000/svg" xmlns:xlink="http://www.w3.org/1999/xlink">
	<desc>
			Created with Pixso.
	</desc>
	<defs>
		<clipPath id="clip86_1838">
			<rect id="air-cooler 1" rx="-0.500000" width="19.000000" height="13.000000" transform="translate(0.500000 0.500000)" fill="white" fill-opacity="0"/>
		</clipPath>
	</defs>
	<rect id="air-cooler 1" rx="-0.500000" width="19.000000" height="13.000000" transform="translate(0.500000 0.500000)" fill="#FFFFFF" fill-opacity="0"/>
	<g clip-path="url(#clip86_1838)">
		<path id="Vector" d="M1.08 12.08C0.8 12.08 0.58 11.85 0.58 11.57L0.58 1.1C0.58 0.82 0.8 0.59 1.08 0.59L18.91 0.59C19.19 0.59 19.41 0.82 19.41 1.1L19.41 11.57C19.41 11.85 19.19 12.08 18.91 12.08L17.26 12.08L17.26 12.08L17.25 12.08L14.03 12.08L14.02 12.08L14.01 12.08L5.98 12.08L5.97 12.08L5.96 12.08L2.74 12.08L2.73 12.08L2.73 12.08L1.08 12.08ZM17.55 12.67L18.91 12.67C19.51 12.67 20 12.18 20 11.57L20 1.1C20 0.49 19.51 0 18.91 0L1.08 0C0.48 0 0 0.49 0 1.1L0 11.57C0 12.18 0.48 12.67 1.08 12.67L2.44 12.67L2.44 13.37C2.44 13.71 2.72 14 3.06 14L5.65 14C5.99 14 6.26 13.71 6.26 13.37L6.26 12.67L13.73 12.67L13.73 13.37C13.73 13.71 14 14 14.34 14L16.93 14C17.27 14 17.55 13.71 17.55 13.37L17.55 12.67ZM10.32 6.33C10.32 7.69 10.94 8.9 11.91 9.69C11.93 9.7 11.95 9.72 11.97 9.73C12.67 10.29 13.56 10.62 14.52 10.62C15.85 10.62 17.04 9.99 17.81 9C18.38 8.27 18.72 7.34 18.72 6.33C18.72 3.97 16.84 2.05 14.52 2.05C12.2 2.05 10.32 3.97 10.32 6.33ZM5.92 2.07C5.77 2.06 5.61 2.05 5.46 2.05C5.12 2.05 4.79 2.09 4.47 2.17C3.54 2.44 2.84 2.93 2.33 3.52C2.27 3.56 2.22 3.61 2.17 3.67C1.69 4.28 1.37 5.03 1.28 5.85C1.28 5.88 1.28 5.9 1.28 5.93C1.27 6.07 1.26 6.2 1.26 6.33C1.26 7.69 1.88 8.9 2.84 9.69C3.56 10.27 4.47 10.62 5.46 10.62C7.78 10.62 9.66 8.7 9.66 6.33C9.66 4.98 9.04 3.77 8.08 2.98C8.07 2.98 8.07 2.98 8.07 2.98C7.47 2.49 6.73 2.17 5.93 2.08C5.93 2.08 5.92 2.07 5.92 2.07ZM3.09 3.51C3.48 3.16 3.99 2.88 4.61 2.75C4.79 2.7 4.98 2.67 5.17 2.66C5.17 2.7 5.16 2.73 5.16 2.77L5.16 5.28C5.08 5.31 5.01 5.34 4.94 5.38L3.2 3.61C3.16 3.57 3.13 3.54 3.09 3.51ZM15.46 5.8L17.2 4.03C17.22 4 17.25 3.97 17.27 3.94C17.75 4.52 18.06 5.24 18.12 6.04C18.09 6.04 18.05 6.04 18.01 6.04L15.55 6.04C15.53 5.95 15.5 5.88 15.46 5.8ZM14.24 2.66C14.23 2.7 14.23 2.73 14.23 2.77L14.23 5.28C14.15 5.31 14.07 5.34 14 5.38L12.26 3.61C12.23 3.58 12.21 3.55 12.18 3.53C12.74 3.04 13.45 2.72 14.24 2.66ZM14.82 5.28L14.82 2.77C14.82 2.71 14.87 2.66 14.93 2.67C14.95 2.67 14.98 2.68 15 2.68C15.57 2.76 16.1 2.97 16.56 3.29C16.63 3.34 16.7 3.39 16.77 3.45C16.8 3.47 16.81 3.5 16.81 3.53C16.81 3.56 16.8 3.59 16.78 3.61L15.04 5.38C14.97 5.34 14.9 5.31 14.82 5.28ZM5.8 5.98C5.8 5.99 5.8 5.99 5.81 5.99C5.89 6.08 5.94 6.2 5.94 6.33C5.94 6.47 5.89 6.59 5.81 6.68C5.8 6.68 5.8 6.68 5.8 6.68C5.8 6.69 5.8 6.69 5.8 6.69C5.71 6.78 5.59 6.83 5.46 6.83C5.33 6.83 5.21 6.78 5.12 6.69C5.12 6.69 5.12 6.69 5.11 6.68C5.11 6.68 5.11 6.68 5.11 6.68C5.02 6.59 4.97 6.47 4.97 6.33C4.97 6.2 5.02 6.08 5.11 5.99C5.11 5.99 5.11 5.99 5.11 5.98C5.12 5.98 5.12 5.98 5.12 5.98C5.21 5.89 5.33 5.84 5.46 5.84C5.59 5.84 5.71 5.89 5.8 5.98C5.8 5.98 5.8 5.98 5.8 5.98ZM6.39 5.8L8.13 4.03C8.16 4 8.18 3.97 8.21 3.94C8.69 4.52 9 5.24 9.06 6.04C9.02 6.04 8.99 6.04 8.95 6.04L6.49 6.04C6.47 5.95 6.43 5.88 6.39 5.8ZM5.75 5.28L5.75 2.77C5.75 2.71 5.8 2.66 5.86 2.67C6.56 2.75 7.19 3.03 7.71 3.45C7.73 3.47 7.75 3.5 7.75 3.53C7.75 3.56 7.74 3.59 7.72 3.61L5.98 5.38C5.91 5.34 5.83 5.31 5.75 5.28ZM11.77 8.73C11.29 8.15 10.98 7.42 10.92 6.62C10.96 6.63 10.99 6.63 11.03 6.63L13.49 6.63C13.51 6.72 13.55 6.79 13.59 6.87L11.85 8.64C11.82 8.67 11.8 8.7 11.77 8.73ZM10.93 5.92C11.01 5.21 11.28 4.57 11.69 4.04L11.69 4.04C11.74 3.99 11.81 3.99 11.85 4.03L13.59 5.8C13.55 5.88 13.51 5.95 13.49 6.04L11.03 6.04C10.98 6.04 10.93 5.99 10.93 5.93C10.93 5.93 10.93 5.92 10.93 5.92ZM7.8 9.14C7.24 9.63 6.53 9.95 5.74 10.01C5.75 9.97 5.75 9.94 5.75 9.9L5.75 7.39C5.83 7.36 5.91 7.33 5.98 7.29L7.72 9.06C7.74 9.09 7.77 9.12 7.8 9.14ZM1.85 6.62C1.89 6.63 1.93 6.63 1.97 6.63L4.43 6.63C4.45 6.72 4.48 6.79 4.52 6.87L2.78 8.64C2.76 8.67 2.73 8.7 2.71 8.73C2.23 8.15 1.92 7.42 1.85 6.62ZM4.43 6.04L1.97 6.04C1.91 6.04 1.87 5.99 1.87 5.93C1.87 5.93 1.87 5.92 1.87 5.92C1.94 5.21 2.22 4.57 2.63 4.04C2.67 3.99 2.74 3.99 2.78 4.03L4.52 5.8C4.48 5.88 4.45 5.95 4.43 6.04ZM4.94 7.29C5.01 7.33 5.08 7.36 5.16 7.39L5.16 9.9C5.16 9.96 5.11 10.01 5.05 10C4.36 9.92 3.73 9.64 3.21 9.22C3.18 9.2 3.17 9.17 3.17 9.14C3.17 9.11 3.18 9.08 3.2 9.06L4.94 7.29ZM6.39 6.87C6.43 6.79 6.47 6.72 6.49 6.63L8.95 6.63C9 6.63 9.05 6.68 9.05 6.74C9.05 6.74 9.05 6.75 9.05 6.75C8.97 7.46 8.7 8.1 8.29 8.63C8.24 8.68 8.17 8.68 8.13 8.64L6.39 6.87ZM8.75 10.32C8.75 10.49 8.88 10.62 9.04 10.62L10.94 10.62C11.1 10.62 11.23 10.49 11.23 10.32C11.23 10.16 11.1 10.02 10.94 10.02L9.04 10.02C8.88 10.02 8.75 10.16 8.75 10.32ZM5.68 12.67L5.68 13.37C5.68 13.38 5.66 13.4 5.65 13.4L3.06 13.4C3.04 13.4 3.03 13.38 3.03 13.37L3.03 12.67L5.68 12.67ZM14.34 13.4C14.33 13.4 14.31 13.38 14.31 13.37L14.31 12.67L16.96 12.67L16.96 13.37C16.96 13.38 16.95 13.4 16.93 13.4L14.34 13.4ZM14.87 5.98C14.87 5.99 14.87 5.99 14.87 5.99C14.96 6.08 15.01 6.2 15.01 6.33C15.01 6.47 14.96 6.59 14.87 6.68L15.55 6.63L18.01 6.63C18.07 6.63 18.11 6.68 18.11 6.74C18.11 6.74 18.11 6.74 18.11 6.75C18.04 7.45 17.76 8.1 17.35 8.63L14.81 10.01C14.71 10.02 14.62 10.02 14.52 10.02C13.67 10.02 12.89 9.72 12.27 9.22C12.25 9.2 12.23 9.17 12.23 9.14C12.23 9.11 12.24 9.08 12.26 9.06L14 7.29L14.04 6.33C14.04 6.2 14.09 6.08 14.17 5.99C14.18 5.99 14.18 5.99 14.18 5.98C14.18 5.98 14.18 5.98 14.18 5.98C14.27 5.89 14.39 5.84 14.52 5.84C14.65 5.84 14.77 5.89 14.86 5.98C14.86 5.98 14.86 5.98 14.87 5.98Z" fill="#78C081" fill-opacity="1.000000" fill-rule="evenodd"/>
	</g>
</svg>
