<svg width="9.820312" height="16.388184" viewBox="0 0 9.82031 16.3882" fill="none" xmlns="http://www.w3.org/2000/svg" xmlns:xlink="http://www.w3.org/1999/xlink">
	<desc>
			Created with Pixso.
	</desc>
	<defs/>
	<path id="Vector" d="M0.73 9.54C0.63 9.48 0.54 9.41 0.46 9.32C0.14 9.01 -0.01 8.59 0 8.17C-0.01 7.76 0.14 7.34 0.46 7.02C0.54 6.94 0.63 6.87 0.73 6.81L7.08 0.46C7.7 -0.16 8.7 -0.16 9.32 0.46C9.94 1.08 9.94 2.08 9.32 2.7L3.85 8.17L9.35 13.67C9.97 14.29 9.97 15.3 9.35 15.92C9.04 16.23 8.63 16.38 8.23 16.38C7.82 16.38 7.42 16.23 7.11 15.92L0.73 9.54Z" fill="#FFFFFF" fill-opacity="1.000000" fill-rule="evenodd"/>
	<path id="Vector" d="M0.46 9.32C0.54 9.41 0.63 9.48 0.73 9.54L7.11 15.92C7.42 16.23 7.82 16.38 8.23 16.38C8.63 16.38 9.04 16.23 9.35 15.92C9.97 15.3 9.97 14.29 9.35 13.67L3.85 8.17L9.32 2.7C9.94 2.08 9.94 1.08 9.32 0.46C8.7 -0.16 7.7 -0.16 7.08 0.46L0.73 6.81C0.63 6.87 0.54 6.94 0.46 7.02C0.14 7.34 -0.01 7.76 0 8.17C-0.01 8.59 0.14 9.01 0.46 9.32Z" fill="#5CCD6A" fill-opacity="1.000000" fill-rule="evenodd"/>
</svg>
