<svg width="9.820312" height="16.388184" viewBox="0 0 9.82031 16.3882" fill="none" xmlns="http://www.w3.org/2000/svg" xmlns:xlink="http://www.w3.org/1999/xlink">
	<desc>
			Created with Pixso.
	</desc>
	<defs/>
	<path id="Vector" d="M9.35 9.32C9.27 9.41 9.18 9.48 9.08 9.54L2.7 15.92C2.39 16.23 1.99 16.38 1.58 16.38C1.18 16.38 0.77 16.23 0.46 15.92C-0.16 15.3 -0.16 14.29 0.46 13.67L5.96 8.17L0.49 2.7C-0.13 2.08 -0.13 1.08 0.49 0.46C1.11 -0.16 2.11 -0.16 2.73 0.46L9.08 6.81C9.18 6.87 9.27 6.94 9.35 7.02C9.67 7.34 9.82 7.76 9.82 8.17C9.82 8.59 9.67 9.01 9.35 9.32Z" fill="#5CCD6A" fill-opacity="1.000000" fill-rule="evenodd"/>
</svg>
