<svg width="24.000000" height="18.000000" viewBox="0 0 24 18" fill="none" xmlns="http://www.w3.org/2000/svg" xmlns:xlink="http://www.w3.org/1999/xlink">
	<desc>
			Created with Pixso.
	</desc>
	<defs>
		<clipPath id="clip86_1753">
			<rect id="envelope 1" rx="-0.500000" width="23.000000" height="17.000000" transform="translate(0.500000 0.500000)" fill="white" fill-opacity="0"/>
		</clipPath>
	</defs>
	<rect id="envelope 1" rx="-0.500000" width="23.000000" height="17.000000" transform="translate(0.500000 0.500000)" fill="#FFFFFF" fill-opacity="0"/>
	<g clip-path="url(#clip86_1753)">
		<path id="Vector" d="M22 0L2 0C0.89 0 0 0.89 0 2L0 16C0 17.1 0.89 18 2 18L22 18C23.1 18 24 17.1 24 16L24 2C24 0.89 23.1 0 22 0ZM2 1L22 1C22.07 1 22.13 1.02 22.2 1.04C20.47 2.62 14.73 7.87 12.72 9.68C12.56 9.83 12.31 10 12 10C11.68 10 11.43 9.83 11.27 9.68C9.26 7.87 3.52 2.62 1.79 1.04C1.86 1.02 1.92 1 2 1ZM1 16L1 2C1 1.9 1.02 1.81 1.05 1.72C2.38 2.93 6.38 6.6 8.98 8.96C6.39 11.18 2.38 14.98 1.05 16.26C1.02 16.17 1 16.09 1 16ZM22 17L2 17C1.92 17 1.84 16.97 1.77 16.95C3.15 15.63 7.18 11.81 9.73 9.64C10.06 9.94 10.36 10.21 10.6 10.43C11.01 10.8 11.49 11 12 11C12.5 11 12.98 10.8 13.39 10.43C13.63 10.21 13.93 9.94 14.26 9.64C16.81 11.81 20.84 15.63 22.22 16.95C22.15 16.97 22.08 17 22 17ZM23 16C23 16.09 22.97 16.17 22.94 16.26C21.61 14.98 17.6 11.18 15.01 8.96C17.61 6.6 21.61 2.93 22.94 1.72C22.97 1.81 23 1.9 23 2L23 16Z" fill="#577A5B" fill-opacity="1.000000" fill-rule="nonzero"/>
		<path id="Vector" d="M2 1L22 1C22.07 1 22.13 1.02 22.2 1.04C20.47 2.62 14.73 7.87 12.72 9.68C12.56 9.83 12.31 10 12 10C11.68 10 11.43 9.83 11.27 9.68C9.26 7.87 3.52 2.62 1.79 1.04C1.86 1.02 1.92 1 2 1Z" fill="#78C081" fill-opacity="1.000000" fill-rule="nonzero"/>
		<path id="Vector" d="M1 16L1 2C1 1.9 1.02 1.81 1.05 1.72C2.38 2.93 6.38 6.6 8.98 8.96C6.39 11.18 2.38 14.98 1.05 16.26C1.02 16.17 1 16.09 1 16Z" fill="#78C081" fill-opacity="1.000000" fill-rule="nonzero"/>
		<path id="Vector" d="M22 17L2 17C1.92 17 1.84 16.97 1.77 16.95C3.15 15.63 7.18 11.81 9.73 9.64C10.06 9.94 10.36 10.21 10.6 10.43C11.01 10.8 11.49 11 12 11C12.5 11 12.98 10.8 13.39 10.43C13.63 10.21 13.93 9.94 14.26 9.64C16.81 11.81 20.84 15.63 22.22 16.95C22.15 16.97 22.08 17 22 17Z" fill="#78C081" fill-opacity="1.000000" fill-rule="nonzero"/>
		<path id="Vector" d="M23 16C23 16.09 22.97 16.17 22.94 16.26C21.61 14.98 17.6 11.18 15.01 8.96C17.61 6.6 21.61 2.93 22.94 1.72C22.97 1.81 23 1.9 23 2L23 16Z" fill="#78C081" fill-opacity="1.000000" fill-rule="nonzero"/>
	</g>
</svg>
