<svg width="22.000000" height="21.000000" viewBox="0 0 22 21" fill="none" xmlns="http://www.w3.org/2000/svg" xmlns:xlink="http://www.w3.org/1999/xlink">
	<desc>
			Created with Pixso.
	</desc>
	<defs>
		<clipPath id="clip165_11">
			<rect id="extractor (1) 2" rx="-0.500000" width="21.000000" height="20.000000" transform="translate(0.500000 0.500000)" fill="white" fill-opacity="0"/>
		</clipPath>
	</defs>
	<rect id="extractor (1) 2" rx="-0.500000" width="21.000000" height="20.000000" transform="translate(0.500000 0.500000)" fill="#FFFFFF" fill-opacity="0"/>
	<g clip-path="url(#clip165_11)">
		<path id="Vector" d="M21.4 11.72L21.4 11.69L21.29 11.57L17.73 6.83L17.73 1.38L17.42 1.06L4.78 1.06L4.47 1.38L4.47 6.83L0.9 11.57L0.79 11.69L0.79 11.72L0.76 11.76L0.79 11.78L0.79 13.48C0.79 13.86 0.93 14.21 1.18 14.48C1.43 14.74 1.77 14.89 2.13 14.89L20.06 14.89C20.42 14.89 20.76 14.74 21.01 14.48C21.26 14.21 21.4 13.86 21.4 13.48L21.4 11.78L21.43 11.76L21.4 11.72ZM5.08 1.71L17.11 1.71L17.11 6.62L5.08 6.62L5.08 1.71ZM4.93 7.27L17.27 7.27L20.35 11.37L1.84 11.37L4.93 7.27ZM20.78 13.48C20.78 13.68 20.71 13.88 20.57 14.02C20.44 14.16 20.25 14.24 20.06 14.24L2.13 14.24C1.94 14.24 1.75 14.16 1.62 14.02C1.48 13.88 1.41 13.68 1.41 13.48L1.41 12.02L20.78 12.02L20.78 13.48Z" fill="#78C081" fill-opacity="1.000000" fill-rule="nonzero"/>
		<path id="Vector" d="M7.64 3.35L7.33 3.68L7.33 5.58L7.64 5.9L14.55 5.9L14.86 5.58L14.86 3.68L14.55 3.35L7.64 3.35ZM14.24 5.25L7.95 5.25L7.95 4L14.24 4L14.24 5.25Z" fill="#78C081" fill-opacity="1.000000" fill-rule="nonzero"/>
		<path id="Vector" d="M7.82 16.71C7.83 16.51 8.02 16.26 8.31 15.93L7.86 15.49C7.06 16.38 6.93 16.89 7.78 18C8.03 18.34 8.14 18.65 8.09 18.91C8.02 19.28 7.66 19.49 7.66 19.5L7.8 19.78L7.95 20.07C7.98 20.05 8.56 19.72 8.69 19.05C8.78 18.58 8.64 18.1 8.26 17.6C7.94 17.17 7.8 16.91 7.82 16.71Z" fill="#78C081" fill-opacity="1.000000" fill-rule="nonzero"/>
		<path id="Vector" d="M10.96 16.71C10.97 16.51 11.16 16.26 11.45 15.93L11 15.49C10.2 16.38 10.07 16.89 10.91 18C11.17 18.34 11.27 18.65 11.22 18.91C11.16 19.28 10.8 19.49 10.79 19.5L10.94 19.78L11.09 20.07C11.11 20.05 11.7 19.72 11.83 19.05C11.92 18.58 11.77 18.1 11.4 17.6C11.07 17.17 10.94 16.91 10.96 16.71Z" fill="#78C081" fill-opacity="1.000000" fill-rule="nonzero"/>
		<path id="Vector" d="M14.09 16.71C14.11 16.51 14.29 16.26 14.59 15.93L14.14 15.49C13.34 16.38 13.21 16.89 14.05 18C14.31 18.34 14.41 18.65 14.36 18.91C14.29 19.28 13.94 19.49 13.93 19.5L14.08 19.78L14.23 20.07C14.25 20.05 14.84 19.72 14.97 19.05C15.06 18.58 14.91 18.1 14.53 17.6C14.21 17.17 14.08 16.91 14.09 16.71Z" fill="#78C081" fill-opacity="1.000000" fill-rule="nonzero"/>
		<path id="Ellipse 14" d="M15 13.14C15 13.41 14.77 13.64 14.5 13.64C14.22 13.64 14 13.41 14 13.14C14 12.86 14.22 12.64 14.5 12.64C14.77 12.64 15 12.86 15 13.14Z" fill="#78C081" fill-opacity="1.000000" fill-rule="nonzero"/>
		<path id="Ellipse 15" d="M17 13.14C17 13.41 16.77 13.64 16.5 13.64C16.22 13.64 16 13.41 16 13.14C16 12.86 16.22 12.64 16.5 12.64C16.77 12.64 17 12.86 17 13.14Z" fill="#78C081" fill-opacity="1.000000" fill-rule="nonzero"/>
		<path id="Ellipse 16" d="M19 13.14C19 13.41 18.77 13.64 18.5 13.64C18.22 13.64 18 13.41 18 13.14C18 12.86 18.22 12.64 18.5 12.64C18.77 12.64 19 12.86 19 13.14Z" fill="#78C081" fill-opacity="1.000000" fill-rule="nonzero"/>
	</g>
</svg>
