<svg width="20.000000" height="20.000000" viewBox="0 0 20 20" fill="none" xmlns="http://www.w3.org/2000/svg" xmlns:xlink="http://www.w3.org/1999/xlink">
	<desc>
			Created with Pixso.
	</desc>
	<defs>
		<clipPath id="clip165_3">
			<rect id="fan (2) 2" rx="-0.500000" width="19.000000" height="19.000000" transform="translate(0.500000 0.500000)" fill="white" fill-opacity="0"/>
		</clipPath>
	</defs>
	<rect id="fan (2) 2" rx="-0.500000" width="19.000000" height="19.000000" transform="translate(0.500000 0.500000)" fill="#FFFFFF" fill-opacity="0"/>
	<g clip-path="url(#clip165_3)">
		<path id="Vector" d="M10 0.62C8.14 0.62 6.33 1.17 4.79 2.2C3.24 3.23 2.04 4.69 1.33 6.41C0.62 8.12 0.44 10.01 0.8 11.82C1.16 13.64 2.05 15.31 3.37 16.62C4.68 17.94 6.35 18.83 8.17 19.19C9.98 19.55 11.87 19.37 13.58 18.66C15.3 17.95 16.76 16.75 17.79 15.2C18.82 13.66 19.37 11.85 19.37 10C19.37 7.51 18.38 5.13 16.62 3.37C14.86 1.61 12.48 0.62 10 0.62ZM10 18.75C8.26 18.75 6.57 18.23 5.13 17.27C3.69 16.31 2.57 14.94 1.91 13.34C1.25 11.74 1.08 9.99 1.41 8.29C1.75 6.59 2.58 5.03 3.81 3.81C5.03 2.58 6.59 1.75 8.29 1.41C9.99 1.08 11.74 1.25 13.34 1.91C14.94 2.57 16.31 3.69 17.27 5.13C18.23 6.57 18.75 8.26 18.75 10C18.74 12.31 17.82 14.54 16.18 16.18C14.54 17.82 12.31 18.74 10 18.75Z" fill="#78C081" fill-opacity="1.000000" fill-rule="nonzero"/>
		<path id="Vector" d="M10 3.12C8.64 3.12 7.31 3.52 6.18 4.28C5.04 5.03 4.16 6.11 3.64 7.36C3.12 8.62 2.99 10 3.25 11.34C3.52 12.67 4.17 13.89 5.13 14.86C6.1 15.82 7.32 16.47 8.65 16.74C9.99 17 11.37 16.87 12.63 16.35C13.88 15.83 14.96 14.95 15.71 13.81C16.47 12.68 16.87 11.35 16.87 10C16.87 8.17 16.14 6.42 14.85 5.14C13.57 3.85 11.82 3.12 10 3.12ZM10 16.25C8.76 16.25 7.55 15.88 6.52 15.19C5.49 14.51 4.69 13.53 4.22 12.39C3.75 11.24 3.62 9.99 3.87 8.78C4.11 7.56 4.7 6.45 5.58 5.58C6.45 4.7 7.56 4.11 8.78 3.87C9.99 3.62 11.24 3.75 12.39 4.22C13.53 4.69 14.5 5.5 15.19 6.52C15.88 7.55 16.25 8.76 16.25 10C16.24 11.65 15.58 13.24 14.41 14.41C13.24 15.58 11.65 16.24 10 16.25Z" fill="#78C081" fill-opacity="1.000000" fill-rule="nonzero"/>
		<path id="Vector" d="M11.48 8.85C11.42 8.78 11.36 8.71 11.29 8.64C11.4 8.34 11.54 8.04 11.73 7.77C11.82 7.63 11.91 7.5 11.99 7.39C12.37 6.86 12.6 6.54 12.6 5.99C12.6 5.2 11.67 4.34 10.15 4.34C9.73 4.32 9.3 4.4 8.91 4.57C8.51 4.73 8.16 4.99 7.88 5.31C7.65 5.57 7.49 5.88 7.43 6.22C7.36 6.55 7.39 6.9 7.5 7.22L8.26 9.28C8.23 9.37 8.2 9.46 8.18 9.55C7.86 9.61 7.53 9.63 7.2 9.61C7.03 9.59 6.88 9.58 6.74 9.57C6.09 9.5 5.7 9.47 5.22 9.74C5.03 9.87 4.87 10.05 4.76 10.25C4.64 10.46 4.58 10.69 4.58 10.92C4.54 11.54 4.69 12.16 5.02 12.68C5.22 13.06 5.5 13.4 5.84 13.65C6.18 13.91 6.58 14.09 7 14.17C7.13 14.19 7.27 14.21 7.4 14.21C7.68 14.21 7.95 14.15 8.2 14.04C8.45 13.92 8.67 13.75 8.84 13.54L10.25 11.85C10.34 11.84 10.43 11.82 10.52 11.79C10.73 12.04 10.91 12.31 11.06 12.61C11.13 12.76 11.19 12.9 11.25 13.03C11.52 13.62 11.68 13.98 12.16 14.25C12.34 14.35 12.54 14.41 12.75 14.4C13.42 14.4 14.24 13.94 14.81 12.96C15.04 12.6 15.19 12.19 15.24 11.77C15.29 11.34 15.25 10.91 15.11 10.51C15 10.18 14.81 9.89 14.55 9.66C14.29 9.43 13.98 9.28 13.64 9.22L11.48 8.85ZM10 11.25C9.75 11.25 9.51 11.17 9.3 11.03C9.09 10.9 8.93 10.7 8.84 10.47C8.75 10.25 8.72 9.99 8.77 9.75C8.82 9.51 8.94 9.29 9.11 9.11C9.29 8.94 9.51 8.82 9.75 8.77C9.99 8.72 10.24 8.75 10.47 8.84C10.7 8.93 10.9 9.1 11.03 9.3C11.17 9.51 11.25 9.75 11.25 10C11.24 10.33 11.11 10.64 10.88 10.88C10.64 11.11 10.33 11.24 10 11.25ZM8.36 5.72C8.58 5.46 8.85 5.26 9.17 5.13C9.48 5 9.82 4.95 10.15 4.97C11.33 4.97 11.98 5.57 11.98 5.99C11.98 6.33 11.87 6.49 11.49 7.03C11.4 7.14 11.31 7.27 11.21 7.42C11.03 7.69 10.88 7.98 10.76 8.28C10.42 8.13 10.04 8.08 9.67 8.15C9.3 8.21 8.96 8.39 8.69 8.65L8.09 7.01C8.01 6.79 8 6.55 8.04 6.33C8.09 6.1 8.2 5.89 8.36 5.72ZM8.36 13.14C8.21 13.31 8.01 13.45 7.79 13.52C7.57 13.59 7.34 13.6 7.11 13.55C6.78 13.49 6.47 13.35 6.2 13.14C5.93 12.94 5.71 12.67 5.56 12.37C5.3 11.95 5.18 11.47 5.2 10.98C5.2 10.84 5.23 10.71 5.29 10.59C5.35 10.47 5.43 10.36 5.54 10.28C5.83 10.11 6.03 10.13 6.68 10.19C6.82 10.2 6.98 10.22 7.15 10.23C7.48 10.26 7.81 10.24 8.13 10.19C8.17 10.56 8.32 10.91 8.56 11.2C8.8 11.49 9.12 11.69 9.48 11.8L8.36 13.14ZM14.52 10.71C14.63 11.03 14.66 11.37 14.62 11.71C14.58 12.04 14.46 12.36 14.27 12.65C13.68 13.66 12.83 13.92 12.47 13.71C12.18 13.55 12.09 13.37 11.82 12.77C11.76 12.64 11.7 12.5 11.62 12.34C11.48 12.04 11.3 11.77 11.09 11.51C11.4 11.29 11.63 10.99 11.76 10.64C11.89 10.29 11.9 9.9 11.81 9.54L13.53 9.84C13.76 9.88 13.97 9.98 14.15 10.14C14.32 10.29 14.45 10.49 14.52 10.71L14.52 10.71Z" fill="#78C081" fill-opacity="1.000000" fill-rule="nonzero"/>
		<path id="Vector" d="M10.31 2.18C10.31 2.36 10.17 2.5 10 2.5C9.82 2.5 9.68 2.36 9.68 2.18C9.68 2.01 9.82 1.87 10 1.87C10.17 1.87 10.31 2.01 10.31 2.18Z" fill="#78C081" fill-opacity="1.000000" fill-rule="evenodd"/>
		<path id="Vector" d="M10.31 17.81C10.31 17.98 10.17 18.12 10 18.12C9.82 18.12 9.68 17.98 9.68 17.81C9.68 17.63 9.82 17.5 10 17.5C10.17 17.5 10.31 17.63 10.31 17.81Z" fill="#78C081" fill-opacity="1.000000" fill-rule="evenodd"/>
		<path id="Vector" d="M2.5 10C2.5 10.17 2.36 10.31 2.18 10.31C2.01 10.31 1.87 10.17 1.87 10C1.87 9.82 2.01 9.68 2.18 9.68C2.36 9.68 2.5 9.82 2.5 10Z" fill="#78C081" fill-opacity="1.000000" fill-rule="evenodd"/>
		<path id="Vector" d="M18.12 10C18.12 10.17 17.98 10.31 17.81 10.31C17.63 10.31 17.5 10.17 17.5 10C17.5 9.82 17.63 9.68 17.81 9.68C17.98 9.68 18.12 9.82 18.12 10Z" fill="#78C081" fill-opacity="1.000000" fill-rule="evenodd"/>
	</g>
</svg>
