<svg width="352.000122" height="109.000000" viewBox="0 0 352 109" fill="none" xmlns="http://www.w3.org/2000/svg" xmlns:xlink="http://www.w3.org/1999/xlink">
	<desc>
			Created with Pixso.
	</desc>
	<defs/>
	<path id="Vector" d="M123.76 108.83C110.58 109.2 96.01 109.74 87.21 100.52C77.99 90.86 76.7 76.33 80.97 63.99C84.85 52.81 96.12 46.36 107.59 41.64C118.41 37.18 130.23 35.03 141.18 39.2C153.06 43.71 163.19 52.37 166.42 64.02C169.77 76.06 166.49 89.25 157.66 98.53C149.33 107.28 136.25 108.48 123.76 108.83Z" fill="#78C081" fill-opacity="0.150000" fill-rule="evenodd"/>
	<path id="Vector" d="M132.96 53.43L132.96 27.49L146.23 27.49C149.46 27.49 151.8 28.19 153.24 29.57C154.71 30.93 155.44 33.13 155.44 36.16C155.44 39.2 154.71 41.41 153.24 42.79C151.8 44.18 149.46 44.87 146.23 44.87L138.21 44.87L138.21 53.43L132.96 53.43ZM138.21 39.98L145.93 39.98C147.42 39.98 148.5 39.68 149.18 39.09C149.87 38.47 150.22 37.5 150.22 36.16C150.22 34.85 149.87 33.9 149.18 33.31C148.5 32.69 147.42 32.38 145.93 32.38L138.21 32.38L138.21 39.98Z" fill="#495E4C" fill-opacity="1.000000" fill-rule="nonzero"/>
	<path id="Vector" d="M165 53.76C162.49 53.76 160.64 53.29 159.44 52.35C158.28 51.39 157.69 49.86 157.69 47.76C157.69 45.61 158.34 44.08 159.63 43.16C160.92 42.23 163.01 41.76 165.89 41.76L171.71 41.76C171.61 40.45 171.2 39.51 170.48 38.94C169.78 38.35 168.69 38.05 167.2 38.05C164.79 38.05 163.37 38.9 162.95 40.61L158.1 40.61C158.4 38.24 159.28 36.52 160.75 35.46C162.22 34.37 164.43 33.83 167.39 33.83C170.62 33.83 172.97 34.5 174.43 35.83C175.9 37.14 176.63 39.26 176.63 42.2L176.63 53.43L171.71 53.43L171.71 51.61C170.29 53.04 168.06 53.76 165 53.76ZM162.61 47.54C162.61 48.87 163.82 49.54 166.23 49.54C167.92 49.54 169.19 49.24 170.03 48.65C170.9 48.03 171.46 47.08 171.71 45.8L171.71 45.35L167.2 45.35C164.14 45.35 162.61 46.08 162.61 47.54Z" fill="#495E4C" fill-opacity="1.000000" fill-rule="nonzero"/>
	<path id="Vector" d="M180.08 47.28L184.93 47.28C185.4 48.78 186.98 49.54 189.67 49.54C192.25 49.54 193.54 49.02 193.54 47.98C193.54 47.04 191.92 46.35 188.66 45.91C185.63 45.56 183.48 44.92 182.21 43.98C180.94 43.02 180.31 41.58 180.31 39.68C180.31 37.68 180.98 36.21 182.32 35.27C183.66 34.31 185.79 33.83 188.7 33.83C191.7 33.83 193.94 34.35 195.41 35.39C196.9 36.4 197.78 38.04 198.06 40.31L193.21 40.31C192.93 39.52 192.44 38.95 191.72 38.61C191.02 38.24 189.99 38.05 188.62 38.05C186.26 38.05 185.08 38.53 185.08 39.5C185.08 40.39 186.57 41.03 189.55 41.42C192.84 41.89 195.11 42.57 196.38 43.46C197.65 44.33 198.28 45.7 198.28 47.57C198.28 49.65 197.57 51.2 196.15 52.24C194.76 53.25 192.55 53.76 189.52 53.76C186.53 53.76 184.28 53.24 182.77 52.2C181.25 51.17 180.36 49.52 180.08 47.28Z" fill="#495E4C" fill-opacity="1.000000" fill-rule="nonzero"/>
	<path id="Vector" d="M210.64 53.76C207.24 53.76 204.76 52.98 203.22 51.43C201.71 49.85 200.95 47.3 200.95 43.79C200.95 40.31 201.72 37.78 203.26 36.2C204.8 34.62 207.26 33.83 210.64 33.83C213.72 33.83 216.04 34.46 217.58 35.72C219.12 36.95 220.03 38.94 220.3 41.68L215.45 41.68C215.18 40.52 214.67 39.68 213.92 39.16C213.18 38.65 212.12 38.39 210.75 38.39C209.04 38.39 207.78 38.82 206.99 39.68C206.22 40.52 205.83 41.89 205.83 43.79C205.83 45.67 206.22 47.04 206.99 47.91C207.78 48.77 209.04 49.2 210.75 49.2C213.39 49.2 214.96 48.1 215.45 45.91L220.3 45.91C220.03 48.65 219.12 50.65 217.58 51.91C216.04 53.14 213.72 53.76 210.64 53.76Z" fill="#495E4C" fill-opacity="1.000000" fill-rule="nonzero"/>
	<path id="Vector" d="M230.32 53.76C227.81 53.76 225.96 53.29 224.77 52.35C223.6 51.39 223.02 49.86 223.02 47.76C223.02 45.61 223.66 44.08 224.95 43.16C226.25 42.23 228.34 41.76 231.22 41.76L237.04 41.76C236.94 40.45 236.53 39.51 235.81 38.94C235.11 38.35 234.02 38.05 232.52 38.05C230.11 38.05 228.7 38.9 228.27 40.61L223.43 40.61C223.72 38.24 224.61 36.52 226.07 35.46C227.54 34.37 229.75 33.83 232.71 33.83C235.94 33.83 238.29 34.5 239.76 35.83C241.22 37.14 241.96 39.26 241.96 42.2L241.96 53.43L237.04 53.43L237.04 51.61C235.62 53.04 233.38 53.76 230.32 53.76ZM227.94 47.54C227.94 48.87 229.14 49.54 231.55 49.54C233.24 49.54 234.51 49.24 235.36 48.65C236.23 48.03 236.79 47.08 237.04 45.8L237.04 45.35L232.52 45.35C229.47 45.35 227.94 46.08 227.94 47.54Z" fill="#495E4C" fill-opacity="1.000000" fill-rule="nonzero"/>
	<path id="Vector" d="M246.23 53.43L246.23 25.64L251.15 25.64L251.15 53.43L246.23 53.43Z" fill="#495E4C" fill-opacity="1.000000" fill-rule="nonzero"/>
	<path id="Vector" d="M263.85 27.49L269.41 27.49L278.36 47.94L287.27 27.49L292.86 27.49L281.3 53.43L275.41 53.43L263.85 27.49Z" fill="#495E4C" fill-opacity="1.000000" fill-rule="nonzero"/>
	<path id="Vector" d="M295.75 51.39C294.18 49.81 293.4 47.28 293.4 43.79C293.4 40.31 294.18 37.78 295.75 36.2C297.31 34.62 299.85 33.83 303.35 33.83C306.84 33.83 309.35 34.62 310.89 36.2C312.45 37.78 313.24 40.31 313.24 43.79C313.24 44.14 313.21 44.66 313.16 45.35L298.43 45.35C298.76 48.14 300.41 49.54 303.39 49.54C305.63 49.54 307.11 48.78 307.83 47.28L312.9 47.28C312.4 49.67 311.35 51.35 309.73 52.32C308.12 53.28 305.99 53.76 303.35 53.76C299.85 53.76 297.31 52.97 295.75 51.39ZM303.39 38.05C302 38.05 300.89 38.34 300.07 38.9C299.25 39.47 298.73 40.41 298.51 41.72L308.28 41.72C308.05 40.41 307.53 39.47 306.71 38.9C305.92 38.34 304.81 38.05 303.39 38.05Z" fill="#495E4C" fill-opacity="1.000000" fill-rule="nonzero"/>
	<path id="Vector" d="M321.61 53.43L316.69 53.43L316.69 34.16L321.61 34.16L321.61 36.09C322.9 34.58 324.99 33.83 327.87 33.83C330.61 33.83 332.6 34.52 333.84 35.9C335.11 37.29 335.74 39.51 335.74 42.57L335.74 53.43L330.82 53.43L330.82 42.57C330.82 41.12 330.46 40.05 329.74 39.39C329.04 38.72 327.93 38.39 326.42 38.39C324.7 38.39 323.47 38.82 322.73 39.68C321.98 40.52 321.61 41.89 321.61 43.79L321.61 53.43Z" fill="#495E4C" fill-opacity="1.000000" fill-rule="nonzero"/>
	<path id="Vector" d="M346.37 34.16L351.66 34.16L351.66 38.72L346.37 38.72L346.37 46.13C346.37 47.09 346.59 47.8 347.04 48.24C347.48 48.66 348.23 48.87 349.27 48.87L352 48.87L352 53.43L349.12 53.43C346.44 53.43 344.49 52.9 343.27 51.83C342.05 50.77 341.44 49.07 341.44 46.72L341.44 38.72L338.61 38.72L338.61 34.16L341.44 34.16L341.44 29.98L346.37 29.98L346.37 34.16Z" fill="#495E4C" fill-opacity="1.000000" fill-rule="nonzero"/>
	<path id="Vector" d="M137.51 81.58L142.78 81.58L142.78 84.61L137.51 84.61L137.51 98.7L134.27 98.7L134.27 84.61L131.22 84.61L131.22 81.58L134.27 81.58L134.27 80.99C134.27 78.53 134.81 76.74 135.89 75.62C136.97 74.5 138.71 73.94 141.09 73.94L142.98 73.94L142.98 76.97L141.26 76.97C139.96 76.97 139 77.29 138.41 77.93C137.81 78.56 137.51 79.58 137.51 80.99L137.51 81.58Z" fill="#78C081" fill-opacity="1.000000" fill-rule="nonzero"/>
	<path id="Vector" d="M152.08 98.7L148.83 98.7L148.83 81.58L152.08 81.58L152.08 83.79C153.2 82.14 155.17 81.32 157.98 81.32L159.47 81.32L159.47 84.35L157.05 84.35C155.28 84.35 154.01 84.81 153.24 85.73C152.46 86.63 152.08 88.1 152.08 90.14L152.08 98.7Z" fill="#78C081" fill-opacity="1.000000" fill-rule="nonzero"/>
	<path id="Vector" d="M166.17 96.86C164.8 95.45 164.11 93.22 164.11 90.14C164.11 87.07 164.8 84.83 166.17 83.42C167.56 82.02 169.8 81.32 172.9 81.32C175.97 81.32 178.18 82.02 179.53 83.42C180.9 84.83 181.58 87.07 181.58 90.14C181.58 90.25 181.57 90.42 181.55 90.64C181.55 90.86 181.55 91.02 181.55 91.13L167.43 91.13C167.54 92.84 168.04 94.1 168.92 94.92C169.83 95.73 171.16 96.14 172.93 96.14C175.51 96.14 177.16 95.26 177.87 93.5L181.25 93.5C180.78 95.52 179.83 96.94 178.4 97.75C176.98 98.56 175.15 98.97 172.9 98.97C169.8 98.97 167.56 98.26 166.17 96.86ZM172.93 84.15C171.27 84.15 169.99 84.51 169.08 85.24C168.2 85.94 167.67 87.09 167.49 88.69L178.33 88.69C178.16 87.07 177.63 85.91 176.74 85.2C175.88 84.5 174.61 84.15 172.93 84.15Z" fill="#78C081" fill-opacity="1.000000" fill-rule="nonzero"/>
	<path id="Vector" d="M187.29 93.5L190.5 93.5C190.79 94.42 191.34 95.09 192.16 95.51C192.98 95.93 194.14 96.14 195.64 96.14C198.58 96.14 200.05 95.43 200.05 94.03C200.05 93.39 199.65 92.89 198.85 92.51C198.06 92.14 196.78 91.82 195.01 91.56C192.29 91.21 190.37 90.64 189.24 89.85C188.14 89.03 187.58 87.85 187.58 86.29C187.58 84.62 188.17 83.38 189.34 82.57C190.51 81.73 192.36 81.32 194.88 81.32C197.39 81.32 199.29 81.76 200.58 82.63C201.86 83.49 202.65 84.87 202.96 86.78L199.75 86.78C199.46 85.86 198.93 85.19 198.16 84.77C197.38 84.36 196.27 84.15 194.81 84.15C192.09 84.15 190.73 84.82 190.73 86.16C190.73 86.77 191.12 87.27 191.89 87.64C192.67 87.99 193.89 88.3 195.57 88.56C198.42 89 200.4 89.59 201.5 90.34C202.63 91.09 203.19 92.23 203.19 93.76C203.19 97.23 200.64 98.97 195.54 98.97C193 98.97 191.06 98.53 189.74 97.65C188.41 96.77 187.59 95.39 187.29 93.5Z" fill="#78C081" fill-opacity="1.000000" fill-rule="nonzero"/>
	<path id="Vector" d="M209.83 74.01L213.08 74.01L213.08 83.89C214.27 82.17 216.36 81.32 219.34 81.32C221.84 81.32 223.66 81.92 224.81 83.13C225.96 84.34 226.54 86.26 226.54 88.89L226.54 98.7L223.32 98.7L223.32 88.89C223.32 87.31 222.92 86.16 222.13 85.43C221.33 84.71 220.1 84.35 218.42 84.35C216.54 84.35 215.18 84.81 214.34 85.73C213.5 86.63 213.08 88.1 213.08 90.14L213.08 98.7L209.83 98.7L209.83 74.01Z" fill="#78C081" fill-opacity="1.000000" fill-rule="nonzero"/>
	<path id="Vector" d="M251.69 98.97C249.39 98.97 247.71 98.56 246.65 97.75C245.59 96.94 245.06 95.63 245.06 93.83C245.06 91.96 245.64 90.64 246.82 89.85C248.01 89.03 249.92 88.63 252.55 88.63L258.42 88.63C258.42 87.07 258.02 85.94 257.22 85.24C256.43 84.51 255.16 84.15 253.41 84.15C252.02 84.15 250.95 84.38 250.2 84.84C249.44 85.28 248.94 85.99 248.67 86.98L245.46 86.98C245.77 85.01 246.56 83.57 247.84 82.67C249.12 81.77 251.02 81.32 253.54 81.32C256.37 81.32 258.43 81.9 259.71 83.06C261.01 84.2 261.66 86.04 261.66 88.56L261.66 98.7L258.42 98.7L258.42 96.5C257.11 98.14 254.87 98.97 251.69 98.97ZM248.31 93.7C248.31 94.55 248.64 95.18 249.3 95.58C249.99 95.95 251.04 96.14 252.45 96.14C254.33 96.14 255.73 95.8 256.66 95.11C257.61 94.43 258.19 93.35 258.42 91.85L258.42 91.06L253.38 91.06C250 91.06 248.31 91.94 248.31 93.7Z" fill="#78C081" fill-opacity="1.000000" fill-rule="nonzero"/>
	<path id="Vector" d="M269.15 98.7L269.15 81.58L272.4 81.58L272.4 98.7L269.15 98.7ZM269.12 78.25C268.79 77.93 268.62 77.38 268.62 76.61C268.62 75.84 268.79 75.29 269.12 74.96C269.45 74.63 270 74.47 270.78 74.47C271.55 74.47 272.1 74.63 272.43 74.96C272.76 75.29 272.93 75.84 272.93 76.61C272.93 77.38 272.76 77.93 272.43 78.25C272.1 78.58 271.55 78.75 270.78 78.75C270 78.75 269.45 78.58 269.12 78.25Z" fill="#78C081" fill-opacity="1.000000" fill-rule="nonzero"/>
	<path id="Vector" d="M283.21 98.7L279.96 98.7L279.96 81.58L283.21 81.58L283.21 83.79C284.34 82.14 286.3 81.32 289.11 81.32L290.6 81.32L290.6 84.35L288.18 84.35C286.41 84.35 285.14 84.81 284.37 85.73C283.6 86.63 283.21 88.1 283.21 90.14L283.21 98.7Z" fill="#78C081" fill-opacity="1.000000" fill-rule="nonzero"/>
	<path id="Vector" d="M51.58 1.6C51.58 0.71 52.3 0 53.19 0C54.08 0 54.8 0.71 54.8 1.6L54.8 19.93C54.95 20.06 55.08 20.23 55.18 20.42L60.2 30.51C60.2 28.53 60.21 26.61 60.22 24.75C60.22 24.36 60.22 23.96 60.21 23.55C60.21 23.11 60.21 22.66 60.21 22.2C60.21 20.57 60.26 18.87 60.6 17.38C61.58 12.08 65.87 8.48 71.54 8.79C72.38 8.79 72.72 8.89 73.32 8.92C74.36 9.1 75.37 9.45 76.3 9.95C87.17 15.51 95.72 24.56 100.49 35.55C102.16 39.82 103.49 44.2 104.49 48.65C105.12 51.44 106.38 51.49 107.35 69.64C106 59.7 102.08 51.44 99.93 46.15C99 43.86 97.29 40.54 95.84 37.63C90.85 28.34 82.92 20.84 73.21 16.24C70.92 15.18 69.53 15.61 68.68 17C68.01 18.07 67.87 19.62 67.87 21.18C67.87 21.8 67.89 22.42 67.92 23.02C67.94 23.56 67.95 24.08 67.95 24.55C67.95 24.61 67.95 24.66 67.95 24.71C67.99 27.28 68.01 30.24 68.01 33.33C68.01 36.55 67.99 39.91 67.98 43.13C67.97 46.09 67.95 48.94 67.95 51.44C67.95 59.27 67.73 70.35 67.54 78.08C67.5 78.79 67.48 79.51 67.48 80.22C67.48 81.55 67.55 82.88 67.69 84.21C68.32 89.83 70.56 95.88 75.99 98.58C77.75 99.51 79.91 99.88 81.87 100.26C84.04 100.67 86.23 100.96 88.44 101.13C94.59 101.51 97.79 101.07 100.9 97.56C100.57 96.94 100.23 96.35 99.89 95.76C99.38 94.88 98.86 94.01 98.32 93.14C97.78 92.27 97.21 91.44 96.65 90.62C96.51 90.4 96.34 90.2 96.19 90C96.04 89.79 95.87 89.59 95.7 89.39C95.53 89.19 95.35 89 95.16 88.79C95.07 88.69 94.97 88.59 94.87 88.5C94.76 88.4 94.66 88.31 94.56 88.2C95.21 88.33 95.83 88.56 96.37 88.86C96.65 89.01 96.91 89.17 97.16 89.35C97.41 89.52 97.65 89.7 97.87 89.89C98.76 90.66 99.49 91.52 100.07 92.44C100.64 93.36 101.07 94.34 101.34 95.35C101.47 95.81 101.55 96.29 101.57 96.76C102.23 95.91 102.91 94.91 103.61 93.75C106.77 85.87 108.34 84.47 113.06 81.68C108.34 86.32 107.21 89.23 106.38 92.06C105.11 96.4 103.35 100.34 99.02 102.67C93.49 105.28 87.16 105.04 81.22 104.62C69.28 104.14 63.03 95.83 61.16 85.09C60.78 82.83 60.6 80.55 60.6 78.27C60.6 78.15 60.6 78.04 60.6 77.93C60.47 73.49 60.42 69.05 60.33 64.61C60.21 57.44 60.17 49.28 60.17 41.3C60.17 40.04 60.17 38.79 60.18 37.54C60.07 37.43 59.98 37.3 59.91 37.15L53.25 23.76L47.27 35.77C47.24 50.96 47.07 66.52 46.63 81.47C45.91 92.15 40.47 103.24 28.25 104.4C21.54 105.09 11.31 105.76 6.12 100.87C2.84 97.76 0.31 93.49 0.31 89C0.31 88.64 0.33 88.28 0.36 87.92C0.87 93.06 4.45 97.51 8.89 100.08C12.52 101.66 16.64 101.46 20.57 101.13C23.93 100.74 27.39 100.29 30.58 99.16C35.53 97.22 38.26 92.42 39.33 87.49C39.81 85.41 40.06 83.29 40.08 81.16L39.93 74.32C39.71 64.94 39.6 55.55 39.51 46.17C39.48 43.33 39.47 39.47 39.47 35.49C39.47 30.37 39.49 25.06 39.51 21.46L39.47 20.05L39.3 18.78C38.74 16.11 37.38 15.94 34.9 16.15C32.42 16.36 27.85 20.24 27.85 20.24C27.72 20.34 27.58 20.44 27.43 20.55C26.69 21.09 25.79 21.75 25.17 22.26C18.51 27.48 13.39 34.3 10.31 42.05C4.63 56.75 2.13 72.3 0.36 87.92C0.12 84.28 0 80.64 0 76.98C0 65.21 1.32 53.41 4.53 42.03C4.61 41.77 4.69 41.49 4.78 41.19C5.04 40.3 5.35 39.27 5.65 38.54C5.79 38.19 5.95 37.77 6.11 37.32C6.4 36.53 6.71 35.68 7.02 35.06C10.13 28.18 14.75 22.04 20.56 17.07C23.47 14.54 26.66 12.34 30.07 10.5C31.12 9.91 32.22 9.43 33.37 9.07C39.05 7.91 44.71 10.08 46.53 16.12C47.21 18.1 47.27 20.56 47.27 22.83C47.27 23.04 47.27 23.24 47.27 23.44L47.27 23.44C47.26 23.64 47.26 23.83 47.26 24.03C47.26 24.39 47.27 24.75 47.27 25.09C47.27 26.23 47.28 27.38 47.28 28.53L51.31 20.42C51.38 20.28 51.47 20.15 51.58 20.04L51.58 1.6ZM103.12 87.57C102.7 86.88 102.4 86.12 102.26 85.33C102.14 84.74 102.09 84.14 102.09 83.54C102.09 83.33 102.09 83.13 102.11 82.92C102.25 81.33 102.64 79.8 103.26 78.42C103.88 77 104.68 75.72 105.64 74.61C106.15 74.04 106.71 73.54 107.33 73.12C107.94 72.73 108.58 72.39 109.25 72.12C109.91 71.83 110.58 71.62 111.24 71.42C111.89 71.22 112.54 71.05 113.2 70.87C114.5 70.53 115.77 70.19 116.98 69.76C118.14 69.36 119.22 68.78 120.21 68.03C121.25 67.25 122.09 66.18 122.67 64.91C123.09 63.86 123.45 62.74 123.84 61.66C123.83 61.7 123.82 61.76 123.82 61.82C123.82 62.1 123.94 62.58 124.04 62.97C124.09 63.18 124.14 63.36 124.15 63.47C124.44 65.25 124.59 67.03 124.59 68.81C124.59 69.06 124.58 69.32 124.58 69.58C124.56 70.91 124.47 72.23 124.29 73.53L124.21 74.04L123.93 75.47C123.8 76.09 123.66 76.72 123.49 77.35C123.13 78.64 122.59 79.84 121.89 80.9C121.55 81.42 121.16 81.91 120.75 82.37C120.33 82.81 119.9 83.21 119.47 83.6C118.6 84.37 117.67 85.06 116.69 85.67C114.75 86.88 112.63 87.72 110.4 88.16C112.41 87.24 114.29 86.05 116.01 84.61C116.86 83.91 117.66 83.14 118.42 82.31C119.16 81.52 119.82 80.64 120.39 79.67C120.9 78.72 121.28 77.66 121.5 76.54C121.62 75.97 121.72 75.38 121.82 74.78L121.95 73.86L122.02 73.4L122.07 72.98C122.17 71.91 122.22 70.83 122.22 69.75L122.22 69.71C122.11 69.89 121.95 70.08 121.72 70.26C120.55 71.17 119.23 71.86 117.83 72.3C116.49 72.74 115.14 73.02 113.84 73.31C112.53 73.6 111.22 73.86 110.02 74.25C109.43 74.43 108.86 74.67 108.32 74.97C107.78 75.26 107.28 75.63 106.83 76.06C105.88 76.96 105.05 78.01 104.37 79.19C103.66 80.37 103.14 81.69 102.82 83.1C102.69 83.66 102.62 84.24 102.62 84.82C102.62 85.74 102.79 86.68 103.12 87.57ZM100.91 88.16C100.46 87.08 99.72 86.13 98.76 85.4C97.84 84.68 96.78 84.13 95.65 83.77C94.5 83.42 93.31 83.18 92.11 83.06C91.28 82.97 90.44 82.91 89.59 82.86C89.75 84.01 89.92 85.17 90.04 86.33C90.15 87.09 90.22 87.86 90.34 88.57C90.39 88.93 90.47 89.28 90.56 89.62C90.66 89.96 90.78 90.29 90.92 90.61C91.51 91.92 92.46 93.06 93.67 93.92C94.94 94.83 96.44 95.42 98.03 95.65C96.31 95.85 94.58 95.54 93.08 94.76C91.51 93.97 90.24 92.77 89.4 91.29C89.2 90.92 89.02 90.53 88.87 90.13C88.73 89.73 88.62 89.33 88.54 88.93C88.35 88.1 88.25 87.35 88.13 86.6C87.89 85.07 87.69 83.54 87.49 82.02L87.33 80.88L88.54 80.97C89.84 81.06 91.14 81.21 92.42 81.43C93.73 81.65 95.01 82.03 96.21 82.56C97.43 83.1 98.51 83.88 99.38 84.84C100.24 85.77 100.78 86.93 100.91 88.16Z" fill="#78C081" fill-opacity="1.000000" fill-rule="evenodd"/>
</svg>
