<svg width="20.000000" height="20.000000" viewBox="0 0 20 20" fill="none" xmlns="http://www.w3.org/2000/svg" xmlns:xlink="http://www.w3.org/1999/xlink">
	<desc>
			Created with Pixso.
	</desc>
	<defs>
		<clipPath id="clip86_1843">
			<rect id="ventilation 1" rx="-0.500000" width="19.000000" height="19.000000" transform="matrix(1 0 0 -1 0.5 20.5)" fill="white" fill-opacity="0"/>
		</clipPath>
	</defs>
	<rect id="ventilation 1" rx="-0.500000" width="19.000000" height="19.000000" transform="matrix(1 0 0 -1 0.5 20.5)" fill="#FFFFFF" fill-opacity="0"/>
	<g clip-path="url(#clip86_1843)">
		<path id="Shape_284_" d="M18 20L2 20C0.89 19.99 0 19.1 0 18L0 2C0 0.89 0.89 0 2 0L18 0C19.1 0 19.99 0.89 20 2L20 18C19.99 19.1 19.1 19.99 18 20L18 20ZM19.33 2C19.33 1.26 18.73 0.66 18 0.66L2 0.66C1.26 0.66 0.66 1.26 0.66 2L0.66 18C0.66 18.73 1.26 19.33 2 19.33L18 19.33C18.73 19.33 19.33 18.73 19.33 18L19.33 2Z" fill="#78C081" fill-opacity="1.000000" fill-rule="nonzero"/>
		<path id="Shape_283_" d="M2.49 16.33C3.14 16.33 3.66 16.85 3.66 17.5C3.66 18.14 3.14 18.66 2.49 18.66C1.85 18.66 1.33 18.14 1.33 17.5C1.33 16.85 1.85 16.33 2.49 16.33ZM2.49 18C2.77 18 2.99 17.77 2.99 17.5C2.99 17.22 2.77 17 2.49 17C2.22 17 1.99 17.22 1.99 17.5C1.99 17.77 2.22 18 2.49 18Z" fill="#78C081" fill-opacity="1.000000" fill-rule="nonzero"/>
		<path id="Shape_282_" d="M17.49 18.66C16.85 18.66 16.33 18.14 16.33 17.5C16.33 16.85 16.85 16.33 17.49 16.33C18.14 16.33 18.66 16.85 18.66 17.5C18.66 17.8 18.54 18.1 18.32 18.32C18.1 18.54 17.8 18.66 17.49 18.66ZM17.49 17C17.22 17 16.99 17.22 16.99 17.5C16.99 17.77 17.22 18 17.49 18C17.77 18 17.99 17.77 17.99 17.5C17.99 17.22 17.77 17 17.49 17Z" fill="#78C081" fill-opacity="1.000000" fill-rule="nonzero"/>
		<path id="Shape_281_" d="M2.49 3.66C1.85 3.66 1.33 3.14 1.33 2.5C1.33 1.85 1.85 1.33 2.49 1.33C3.14 1.33 3.66 1.85 3.66 2.5C3.66 3.14 3.14 3.66 2.49 3.66ZM2.49 2C2.22 2 1.99 2.22 1.99 2.5C1.99 2.77 2.22 3 2.49 3C2.77 3 2.99 2.77 2.99 2.5C2.99 2.22 2.77 2 2.49 2Z" fill="#78C081" fill-opacity="1.000000" fill-rule="nonzero"/>
		<path id="Shape_280_" d="M17.49 3.66C16.85 3.66 16.33 3.14 16.33 2.5C16.33 1.85 16.85 1.33 17.49 1.33C18.14 1.33 18.66 1.85 18.66 2.5C18.66 3.14 18.14 3.66 17.49 3.66ZM17.49 2C17.22 2 16.99 2.22 16.99 2.5C16.99 2.77 17.22 3 17.49 3C17.77 3 17.99 2.77 17.99 2.5C17.99 2.22 17.77 2 17.49 2Z" fill="#78C081" fill-opacity="1.000000" fill-rule="nonzero"/>
		<path id="Shape_279_" d="M17.64 14.34L17.04 15.34C16.92 15.54 16.71 15.66 16.47 15.66L3.52 15.66C3.28 15.66 3.07 15.54 2.95 15.34L2.35 14.34C2.22 14.13 2.22 13.88 2.34 13.67C2.46 13.46 2.68 13.33 2.92 13.33L17.07 13.33C17.31 13.33 17.53 13.46 17.65 13.67C17.77 13.88 17.77 14.13 17.64 14.34ZM2.92 14L3.52 15L16.47 15L17.07 14L2.92 14Z" fill="#78C081" fill-opacity="1.000000" fill-rule="nonzero"/>
		<path id="Shape_278_" d="M17.64 11.34L17.04 12.34C16.92 12.54 16.71 12.66 16.47 12.66L3.52 12.66C3.28 12.66 3.07 12.54 2.95 12.34L2.35 11.34C2.22 11.13 2.22 10.88 2.34 10.67C2.46 10.46 2.68 10.33 2.92 10.33L17.07 10.33C17.31 10.33 17.53 10.46 17.65 10.67C17.77 10.88 17.77 11.13 17.64 11.34ZM2.92 11L3.52 12L16.47 12L17.07 11L2.92 11Z" fill="#78C081" fill-opacity="1.000000" fill-rule="nonzero"/>
		<path id="Shape_277_" d="M17.64 8.34L17.04 9.34C16.92 9.54 16.71 9.66 16.47 9.66L3.52 9.66C3.28 9.66 3.07 9.54 2.95 9.34L2.35 8.34C2.22 8.13 2.22 7.88 2.34 7.67C2.46 7.46 2.68 7.33 2.92 7.33L17.07 7.33C17.31 7.33 17.53 7.46 17.65 7.67C17.77 7.88 17.77 8.13 17.64 8.34ZM2.92 8L3.52 9L16.47 9L17.07 8L2.92 8Z" fill="#78C081" fill-opacity="1.000000" fill-rule="nonzero"/>
		<path id="Shape_276_" d="M17.04 6.34C16.92 6.54 16.71 6.66 16.47 6.66L3.52 6.66C3.28 6.66 3.07 6.54 2.95 6.34L2.35 5.34C2.22 5.13 2.22 4.88 2.34 4.67C2.46 4.46 2.68 4.33 2.92 4.33L17.07 4.33C17.31 4.33 17.53 4.46 17.65 4.67C17.77 4.88 17.77 5.13 17.64 5.34L17.04 6.34ZM2.92 4.99L3.52 5.99L16.47 5.99L17.07 4.99L2.92 4.99Z" fill="#78C081" fill-opacity="1.000000" fill-rule="nonzero"/>
	</g>
</svg>
