<svg width="33.000000" height="27.000000" viewBox="0 0 33 27" fill="none" xmlns="http://www.w3.org/2000/svg" xmlns:xlink="http://www.w3.org/1999/xlink">
	<defs>
		<clipPath id="clip86_1787">
			<rect id="air-conditioning 1" rx="-0.500000" width="32.000000" height="26.000000" transform="translate(0.500000 0.500000)" fill="white" fill-opacity="0"/>
		</clipPath>
	</defs>
	<rect id="air-conditioning 1" rx="-0.500000" width="32.000000" height="26.000000" transform="translate(0.500000 0.500000)" fill="#FFFFFF" fill-opacity="0"/>
	<g clip-path="url(#clip86_1787)">
		<path id="Vector" d="M30.09 0L2.9 0C1.3 0 0 1.29 0 2.89L0 12.53C0 14.13 1.3 15.42 2.9 15.42L30.09 15.42C31.69 15.42 33 14.13 33 12.53L33 2.89C33 1.29 31.69 0 30.09 0ZM24.29 5.78C24.83 5.78 25.26 6.21 25.26 6.75C25.26 7.28 24.83 7.71 24.29 7.71C23.76 7.71 23.33 7.28 23.33 6.75C23.33 6.21 23.76 5.78 24.29 5.78ZM28.16 11.57L4.83 11.57C4.29 11.57 3.86 11.14 3.86 10.6C3.86 10.07 4.29 9.64 4.83 9.64L28.16 9.64C28.7 9.64 29.13 10.07 29.13 10.6C29.13 11.14 28.7 11.57 28.16 11.57ZM28.16 7.71C27.63 7.71 27.19 7.28 27.19 6.75C27.19 6.21 27.63 5.78 28.16 5.78C28.7 5.78 29.13 6.21 29.13 6.75C29.13 7.28 28.7 7.71 28.16 7.71Z" fill="#7CA281" fill-opacity="1.000000" fill-rule="nonzero"/>
		<path id="Vector" d="M8.76 17.35C8.23 17.35 7.79 17.78 7.79 18.32L7.79 19.79C7.79 22.08 6.52 24.14 4.46 25.17C3.98 25.41 3.79 25.99 4.03 26.46C4.27 26.93 4.84 27.13 5.33 26.89C8.04 25.54 9.73 22.82 9.73 19.79L9.73 18.32C9.73 17.78 9.29 17.35 8.76 17.35Z" fill="#7CA281" fill-opacity="1.000000" fill-rule="nonzero"/>
		<path id="Vector" d="M24.23 17.35C23.7 17.35 23.26 17.78 23.26 18.32L23.26 19.79C23.26 22.82 24.95 25.54 27.66 26.89C28.15 27.13 28.72 26.94 28.96 26.46C29.2 25.99 29.01 25.41 28.53 25.17C26.47 24.14 25.2 22.08 25.2 19.79L25.2 18.32C25.2 17.78 24.76 17.35 24.23 17.35Z" fill="#7CA281" fill-opacity="1.000000" fill-rule="nonzero"/>
		<path id="Vector" d="M17.46 26.03L17.46 18.32C17.46 17.78 17.03 17.35 16.5 17.35C15.96 17.35 15.53 17.78 15.53 18.32L15.53 26.03C15.53 26.56 15.96 27 16.5 27C17.03 27 17.46 26.56 17.46 26.03Z" fill="#7CA281" fill-opacity="1.000000" fill-rule="nonzero"/>
		<path id="Vector" d="M21.33 26.03L21.33 18.32C21.33 17.78 20.9 17.35 20.36 17.35C19.83 17.35 19.4 17.78 19.4 18.32L19.4 26.03C19.4 26.56 19.83 27 20.36 27C20.9 27 21.33 26.56 21.33 26.03Z" fill="#7CA281" fill-opacity="1.000000" fill-rule="nonzero"/>
		<path id="Vector" d="M13.59 26.03L13.59 18.32C13.59 17.78 13.16 17.35 12.63 17.35C12.09 17.35 11.66 17.78 11.66 18.32L11.66 26.03C11.66 26.56 12.09 27 12.63 27C13.16 27 13.59 26.56 13.59 26.03Z" fill="#7CA281" fill-opacity="1.000000" fill-rule="nonzero"/>
	</g>
</svg>
