<svg width="22.000000" height="22.000000" viewBox="0 0 22 22" fill="none" xmlns="http://www.w3.org/2000/svg" xmlns:xlink="http://www.w3.org/1999/xlink">
	<desc>
			Created with Pixso.
	</desc>
	<defs>
		<clipPath id="clip86_1760">
			<rect id="calendar (1) 1" rx="-0.500000" width="21.000000" height="21.000000" transform="translate(0.500000 0.500000)" fill="white" fill-opacity="0"/>
		</clipPath>
	</defs>
	<rect id="calendar (1) 1" rx="-0.500000" width="21.000000" height="21.000000" transform="translate(0.500000 0.500000)" fill="#FFFFFF" fill-opacity="0"/>
	<g clip-path="url(#clip86_1760)">
		<path id="Vector" d="M17.22 1.1L16.85 1.1L16.85 0.66C16.85 0.29 16.54 0 16.15 0C15.76 0 15.45 0.29 15.45 0.66L15.45 1.1L6.54 1.1L6.54 0.66C6.54 0.29 6.23 0 5.84 0C5.45 0 5.14 0.29 5.14 0.66L5.14 1.1L4.77 1.1C2.14 1.1 0 3.14 0 5.64L0 17.46C0 19.96 2.14 22 4.77 22L17.22 22C19.85 22 22 19.96 22 17.46L22 5.63C21.99 3.14 19.85 1.1 17.22 1.1ZM4.77 2.43L5.14 2.43L5.14 2.87C5.14 3.24 5.45 3.54 5.84 3.54C6.23 3.54 6.54 3.24 6.54 2.87L6.54 2.43L15.45 2.43L15.45 2.87C15.45 3.24 15.76 3.54 16.15 3.54C16.54 3.54 16.85 3.24 16.85 2.87L16.85 2.43L17.22 2.43C19.08 2.43 20.6 3.87 20.6 5.63L20.6 7.19L1.39 7.19L1.39 5.64C1.39 3.87 2.91 2.43 4.77 2.43ZM17.22 20.67L4.77 20.67C2.91 20.67 1.39 19.23 1.39 17.46L1.39 8.52L20.6 8.52L20.6 17.46C20.6 19.23 19.08 20.67 17.22 20.67Z" fill="#577A5B" fill-opacity="1.000000" fill-rule="nonzero"/>
		<path id="Vector" d="M4.77 2.43L5.14 2.43L5.14 2.87C5.14 3.24 5.45 3.54 5.84 3.54C6.23 3.54 6.54 3.24 6.54 2.87L6.54 2.43L15.45 2.43L15.45 2.87C15.45 3.24 15.76 3.54 16.15 3.54C16.54 3.54 16.85 3.24 16.85 2.87L16.85 2.43L17.22 2.43C19.08 2.43 20.6 3.87 20.6 5.63L20.6 7.19L1.39 7.19L1.39 5.64C1.39 3.87 2.91 2.43 4.77 2.43Z" fill="#78C081" fill-opacity="1.000000" fill-rule="nonzero"/>
		<path id="Vector" d="M17.22 20.67L4.77 20.67C2.91 20.67 1.39 19.23 1.39 17.46L1.39 8.52L20.6 8.52L20.6 17.46C20.6 19.23 19.08 20.67 17.22 20.67Z" fill="#78C081" fill-opacity="1.000000" fill-rule="nonzero"/>
		<path id="Vector" d="M6.62 11.74L5.52 11.74C5.13 11.74 4.82 12.04 4.82 12.41C4.82 12.77 5.13 13.07 5.52 13.07L6.62 13.07C7 13.07 7.32 12.77 7.32 12.41C7.32 12.04 7 11.74 6.62 11.74Z" fill="#577A5B" fill-opacity="1.000000" fill-rule="nonzero"/>
		<path id="Vector" d="M11.54 11.74L10.45 11.74C10.06 11.74 9.75 12.04 9.75 12.41C9.75 12.77 10.06 13.07 10.45 13.07L11.54 13.07C11.93 13.07 12.24 12.77 12.24 12.41C12.24 12.04 11.93 11.74 11.54 11.74Z" fill="#577A5B" fill-opacity="1.000000" fill-rule="nonzero"/>
		<path id="Vector" d="M15.37 13.07L16.47 13.07C16.86 13.07 17.17 12.77 17.17 12.41C17.17 12.04 16.86 11.74 16.47 11.74L15.37 11.74C14.99 11.74 14.67 12.04 14.67 12.41C14.67 12.77 14.99 13.07 15.37 13.07Z" fill="#577A5B" fill-opacity="1.000000" fill-rule="nonzero"/>
		<path id="Vector" d="M6.62 16.11L5.52 16.11C5.13 16.11 4.82 16.41 4.82 16.78C4.82 17.14 5.13 17.44 5.52 17.44L6.62 17.44C7 17.44 7.32 17.14 7.32 16.78C7.32 16.41 7 16.11 6.62 16.11Z" fill="#577A5B" fill-opacity="1.000000" fill-rule="nonzero"/>
		<path id="Vector" d="M11.54 16.11L10.45 16.11C10.06 16.11 9.75 16.41 9.75 16.78C9.75 17.14 10.06 17.44 10.45 17.44L11.54 17.44C11.93 17.44 12.24 17.14 12.24 16.78C12.24 16.41 11.93 16.11 11.54 16.11Z" fill="#577A5B" fill-opacity="1.000000" fill-rule="nonzero"/>
		<path id="Vector" d="M16.47 16.11L15.37 16.11C14.99 16.11 14.67 16.41 14.67 16.78C14.67 17.14 14.99 17.44 15.37 17.44L16.47 17.44C16.86 17.44 17.17 17.14 17.17 16.78C17.17 16.41 16.86 16.11 16.47 16.11Z" fill="#577A5B" fill-opacity="1.000000" fill-rule="nonzero"/>
	</g>
</svg>
