<svg width="25.000000" height="25.000000" viewBox="0 0 25 25" fill="none" xmlns="http://www.w3.org/2000/svg" xmlns:xlink="http://www.w3.org/1999/xlink">
	<desc>
			Created with Pixso.
	</desc>
	<defs>
		<clipPath id="clip80_1333">
			<rect id="close (2) 1" rx="-0.500000" width="24.000000" height="24.000000" transform="translate(0.500000 0.500000)" fill="white" fill-opacity="0"/>
		</clipPath>
	</defs>
	<rect id="close (2) 1" rx="-0.500000" width="24.000000" height="24.000000" transform="translate(0.500000 0.500000)" fill="#FFFFFF" fill-opacity="0"/>
	<g clip-path="url(#clip80_1333)">
		<path id="Vector" d="M14.79 12.52L24.52 2.78C25.15 2.15 25.15 1.12 24.52 0.49C23.89 -0.14 22.86 -0.14 22.23 0.49L12.49 10.23L2.76 0.49C2.13 -0.14 1.1 -0.14 0.47 0.49C-0.16 1.12 -0.16 2.15 0.47 2.78L10.2 12.52L0.47 22.25C-0.16 22.88 -0.16 23.91 0.47 24.54C0.79 24.86 1.2 25.02 1.62 25.02C2.03 25.02 2.44 24.86 2.76 24.54L12.49 14.81L22.23 24.54C22.55 24.86 22.96 25.02 23.37 25.02C23.79 25.02 24.2 24.86 24.52 24.54C25.15 23.91 25.15 22.88 24.52 22.25L14.79 12.52Z" fill="#FFFFFF" fill-opacity="1.000000" fill-rule="nonzero"/>
	</g>
</svg>
