<svg width="20.000000" height="20.000000" viewBox="0 0 20 20" fill="none" xmlns="http://www.w3.org/2000/svg" xmlns:xlink="http://www.w3.org/1999/xlink">
	<desc>
			Created with Pixso.
	</desc>
	<defs>
		<clipPath id="clip86_1804">
			<rect id="curve 1" rx="-0.500000" width="19.000000" height="19.000000" transform="translate(0.500000 0.500000)" fill="white" fill-opacity="0"/>
		</clipPath>
	</defs>
	<rect id="curve 1" rx="-0.500000" width="19.000000" height="19.000000" transform="translate(0.500000 0.500000)" fill="#FFFFFF" fill-opacity="0"/>
	<g clip-path="url(#clip86_1804)">
		<path id="Vector" d="M19.82 14.55L17.77 13.52L16.47 10.13C16.45 10.09 16.43 10.05 16.4 10.02C16.37 9.99 16.33 9.97 16.29 9.95L8.2 6.71C8.14 6.69 8.08 6.69 8.02 6.7C7.96 6.71 7.9 6.74 7.86 6.78L6.78 7.86C6.74 7.91 6.71 7.96 6.7 8.02C6.69 8.08 6.69 8.14 6.71 8.2L9.95 16.29C9.97 16.33 9.99 16.37 10.02 16.4C10.05 16.43 10.09 16.45 10.13 16.47L13.52 17.77L14.55 19.82C14.57 19.87 14.6 19.91 14.64 19.94C14.68 19.97 14.73 19.99 14.78 20C14.79 20 14.81 20 14.83 20C14.91 19.99 14.99 19.96 15.05 19.9L19.9 15.05C19.94 15.01 19.97 14.97 19.98 14.92C20 14.88 20 14.83 20 14.78C19.99 14.73 19.97 14.68 19.94 14.64C19.91 14.6 19.87 14.57 19.82 14.55ZM7.37 8.16L7.54 7.98L11.57 12.01C11.31 12.39 11.19 12.85 11.25 13.31C11.31 13.77 11.54 14.18 11.89 14.48C12.24 14.78 12.69 14.93 13.15 14.91C13.61 14.89 14.05 14.7 14.37 14.37C14.7 14.05 14.89 13.61 14.91 13.15C14.93 12.69 14.78 12.24 14.48 11.89C14.18 11.54 13.77 11.31 13.31 11.25C12.85 11.19 12.39 11.31 12.01 11.57L7.98 7.54L8.16 7.37L15.93 10.48L17.16 13.67L13.67 17.16L10.48 15.93L7.37 8.16ZM13.07 11.86C13.35 11.86 13.63 11.96 13.84 12.14C14.06 12.31 14.21 12.56 14.26 12.84C14.32 13.11 14.27 13.4 14.14 13.65C14.01 13.89 13.79 14.09 13.53 14.2C13.27 14.3 12.99 14.32 12.72 14.23C12.45 14.15 12.22 13.98 12.06 13.75C11.91 13.51 11.84 13.23 11.86 12.95C11.89 12.67 12.01 12.41 12.21 12.21C12.44 11.99 12.75 11.86 13.07 11.86ZM14.91 19.15L14.13 17.59L17.59 14.13L19.15 14.92L14.91 19.15Z" fill="#78C081" fill-opacity="1.000000" fill-rule="nonzero"/>
		<path id="Vector" d="M5.97 16.71C5.91 16.66 5.83 16.63 5.75 16.63C5.67 16.63 5.59 16.66 5.53 16.71L5.13 17.11C4.07 15.67 3.49 13.94 3.46 12.16C3.43 10.37 3.96 8.62 4.98 7.15C5.28 7.32 5.63 7.38 5.97 7.33C6.32 7.29 6.63 7.13 6.88 6.88C7.13 6.64 7.29 6.32 7.34 5.98C7.39 5.64 7.32 5.29 7.16 4.98C8.63 3.97 10.38 3.44 12.16 3.47C13.95 3.49 15.68 4.08 17.12 5.14L16.71 5.53C16.66 5.59 16.62 5.67 16.62 5.75C16.62 5.79 16.63 5.83 16.65 5.87C16.66 5.91 16.68 5.94 16.71 5.97L18.09 7.34C18.15 7.4 18.23 7.43 18.31 7.43C18.39 7.43 18.47 7.4 18.53 7.34L19.9 5.97C19.93 5.94 19.95 5.9 19.97 5.87C19.99 5.83 19.99 5.79 19.99 5.75C19.99 5.71 19.99 5.67 19.97 5.63C19.95 5.59 19.93 5.56 19.9 5.53L18.53 4.16C18.47 4.1 18.39 4.07 18.31 4.07C18.23 4.07 18.15 4.1 18.09 4.16L17.56 4.68C16.26 3.7 14.71 3.08 13.09 2.89C11.47 2.71 9.82 2.95 8.33 3.61L10.13 1.81C10.33 1.91 10.57 1.93 10.78 1.87C11 1.82 11.2 1.68 11.33 1.5C11.46 1.31 11.52 1.09 11.5 0.86C11.48 0.64 11.38 0.43 11.22 0.27C11.06 0.11 10.84 0.01 10.62 -0.01C10.39 -0.02 10.17 0.04 9.98 0.17C9.8 0.3 9.67 0.5 9.61 0.72C9.56 0.93 9.58 1.17 9.68 1.37L6.64 4.42C6.33 4.21 5.96 4.11 5.59 4.15C5.22 4.19 4.88 4.35 4.61 4.61C4.35 4.88 4.19 5.22 4.15 5.59C4.11 5.96 4.21 6.33 4.42 6.64L1.37 9.68C1.17 9.58 0.93 9.56 0.71 9.62C0.49 9.67 0.3 9.8 0.17 9.99C0.04 10.17 -0.03 10.4 -0.01 10.62C0.01 10.85 0.11 11.06 0.27 11.22C0.43 11.38 0.64 11.48 0.87 11.5C1.1 11.52 1.32 11.46 1.51 11.33C1.69 11.19 1.82 11 1.88 10.78C1.94 10.56 1.91 10.33 1.81 10.12L3.61 8.33C2.96 9.82 2.71 11.47 2.9 13.09C3.08 14.71 3.7 16.26 4.68 17.56L4.15 18.09C4.1 18.15 4.06 18.23 4.06 18.31C4.06 18.39 4.1 18.47 4.15 18.53L5.52 19.9C5.58 19.96 5.66 19.99 5.75 20C5.79 20 5.83 19.99 5.87 19.97C5.9 19.96 5.94 19.93 5.97 19.9L7.34 18.53C7.4 18.47 7.43 18.39 7.43 18.31C7.43 18.23 7.4 18.15 7.34 18.09L5.97 16.71ZM18.32 4.82L19.24 5.74L18.32 6.67L17.39 5.74L18.32 4.82ZM10.31 0.72C10.35 0.67 10.41 0.64 10.48 0.63C10.54 0.61 10.61 0.62 10.67 0.65C10.73 0.67 10.78 0.71 10.82 0.77C10.86 0.82 10.88 0.89 10.88 0.95C10.88 1.02 10.86 1.08 10.82 1.14C10.78 1.19 10.73 1.24 10.67 1.26C10.61 1.29 10.54 1.29 10.48 1.28C10.41 1.27 10.35 1.23 10.31 1.19C10.28 1.16 10.25 1.12 10.24 1.08C10.22 1.04 10.21 1 10.21 0.95C10.21 0.91 10.22 0.87 10.24 0.83C10.25 0.79 10.28 0.75 10.31 0.72ZM5.06 5.06C5.15 4.97 5.26 4.89 5.37 4.84C5.49 4.8 5.62 4.77 5.75 4.77C5.88 4.77 6.01 4.8 6.12 4.84C6.24 4.89 6.35 4.97 6.44 5.06C6.58 5.19 6.67 5.37 6.71 5.56C6.75 5.75 6.73 5.95 6.65 6.13C6.58 6.3 6.46 6.46 6.29 6.57C6.13 6.67 5.94 6.73 5.75 6.73C5.56 6.73 5.37 6.67 5.21 6.57C5.04 6.46 4.92 6.3 4.84 6.13C4.77 5.95 4.75 5.75 4.79 5.56C4.83 5.37 4.92 5.19 5.06 5.06ZM1.19 10.78C1.12 10.83 1.04 10.86 0.96 10.85C0.88 10.85 0.8 10.81 0.74 10.76C0.68 10.7 0.65 10.62 0.64 10.54C0.64 10.45 0.67 10.37 0.72 10.31C0.78 10.25 0.87 10.21 0.95 10.21C1.04 10.21 1.13 10.25 1.19 10.31C1.22 10.34 1.24 10.37 1.26 10.41C1.28 10.46 1.29 10.5 1.29 10.54C1.29 10.59 1.28 10.63 1.26 10.67C1.24 10.71 1.22 10.75 1.19 10.78ZM5.75 19.23L4.82 18.31L5.75 17.38L6.68 18.31L5.75 19.23Z" fill="#78C081" fill-opacity="1.000000" fill-rule="nonzero"/>
	</g>
</svg>
