<svg width="166.000000" height="30.000000" viewBox="0 0 166 30" fill="none" xmlns="http://www.w3.org/2000/svg" xmlns:xlink="http://www.w3.org/1999/xlink">
	<desc>
			Created with Pixso.
	</desc>
	<defs/>
	<path id="Pascal vent" d="M37.03 8.54L35.68 8.54C35.51 6.84 34.06 5.76 32.04 5.76C29.91 5.76 28.44 6.96 28.44 8.6C28.44 10.21 30 10.97 31.48 11.38L33.09 11.84C35.03 12.39 37.24 13.4 37.24 15.94C37.24 18.39 35.25 20.26 31.94 20.26C28.82 20.26 26.85 18.6 26.69 16.18L28.13 16.18C28.27 17.99 29.88 18.98 31.94 18.98C34.22 18.98 35.89 17.75 35.89 15.91C35.89 14.36 34.59 13.65 32.69 13.1L30.87 12.56C28.47 11.85 27.09 10.62 27.09 8.66C27.09 6.2 29.26 4.51 32.08 4.51C34.92 4.51 36.92 6.22 37.03 8.54ZM46.51 4.51C49.76 4.51 52.06 6.69 52.56 9.5L51.16 9.5C50.73 7.41 48.91 5.82 46.51 5.82C43.62 5.82 41.26 8.13 41.26 12.36C41.26 16.6 43.62 18.89 46.51 18.89C48.91 18.89 50.73 17.32 51.16 15.22L52.56 15.22C52.06 18.03 49.76 20.21 46.51 20.21C42.66 20.21 39.92 17.14 39.92 12.36C39.92 7.58 42.66 4.51 46.51 4.51ZM3.42 20L2.03 20L2.03 4.72L6.95 4.72C10.2 4.72 11.87 6.77 11.87 9.43C11.87 12.1 10.2 14.16 6.97 14.16L3.42 14.16L3.42 20ZM15.26 15.4L13.63 20L12.17 20L17.72 4.72L19.21 4.72L24.77 20L23.31 20L21.67 15.4L15.26 15.4ZM57.5 15.4L55.87 20L54.4 20L59.96 4.72L61.45 4.72L67.01 20L65.55 20L63.91 15.4L57.5 15.4ZM78.3 20L69.63 20L69.63 4.72L71.02 4.72L71.02 18.74L78.3 18.74L78.3 20ZM85.9 4.72L87.37 4.72L92.14 18.19L92.27 18.19L97.05 4.72L98.51 4.72L92.95 20L91.46 20L85.9 4.72ZM110.14 20L101.13 20L101.13 4.72L109.99 4.72L109.99 5.97L102.52 5.97L102.52 11.73L109.51 11.73L109.51 12.98L102.52 12.98L102.52 18.74L110.14 18.74L110.14 20ZM124.11 4.72L125.48 4.72L125.48 20L124.12 20L115.1 7.2L114.98 7.2L114.98 20L113.59 20L113.59 4.72L114.94 4.72L123.99 17.53L124.11 17.53L124.11 4.72ZM133.45 5.97L128.61 5.97L128.61 4.72L139.69 4.72L139.69 5.97L134.85 5.97L134.85 20L133.45 20L133.45 5.97ZM3.42 5.97L3.42 12.9L6.94 12.9C9.33 12.9 10.5 11.43 10.5 9.43C10.5 7.43 9.33 5.97 6.92 5.97L3.42 5.97ZM18.42 6.54L15.71 14.14L21.23 14.14L18.52 6.54L18.42 6.54ZM60.65 6.54L57.95 14.14L63.46 14.14L60.76 6.54L60.65 6.54Z" fill="#78C081" fill-opacity="1.000000" fill-rule="evenodd"/>
	<rect id="Rectangle 4259" y="29.000000" rx="0.500000" width="166.000000" height="1.000000" fill="#78C081" fill-opacity="1.000000"/>
</svg>
