<svg width="20.000000" height="20.000000" viewBox="0 0 20 20" fill="none" xmlns="http://www.w3.org/2000/svg" xmlns:xlink="http://www.w3.org/1999/xlink">
	<desc>
			Created with Pixso.
	</desc>
	<defs>
		<clipPath id="clip166_58">
			<rect id="humidity (2) 1" rx="-0.500000" width="19.000000" height="19.000000" transform="translate(0.500000 0.500000)" fill="white" fill-opacity="0"/>
		</clipPath>
	</defs>
	<rect id="humidity (2) 1" rx="-0.500000" width="19.000000" height="19.000000" transform="translate(0.500000 0.500000)" fill="#FFFFFF" fill-opacity="0"/>
	<g clip-path="url(#clip166_58)">
		<path id="Shape" d="M12.56 0.9C14.08 0.9 19.09 9.2 19.09 12.39C19.09 16.09 16.16 19.09 12.56 19.09C11.71 19.09 10.88 18.92 10.11 18.6C9.87 18.5 9.76 18.22 9.85 17.97C9.95 17.73 10.22 17.61 10.46 17.71C11.12 17.99 11.83 18.13 12.56 18.13C15.65 18.13 18.15 15.52 18.15 12.39C18.05 9.05 13.46 2.38 12.52 1.87C11.56 2.42 8.57 7.41 7.81 9.24C7.71 9.48 7.44 9.59 7.2 9.49C6.96 9.38 6.86 9.1 6.96 8.86C7.81 6.63 11.23 1.02 12.56 0.9ZM10.23 15.74C10.49 15.74 10.69 15.95 10.69 16.22C10.69 16.46 10.51 16.69 10.23 16.69C9.51 16.69 8.96 17.65 7.9 17.65C6.84 17.65 6.3 16.69 5.57 16.69C4.83 16.69 4.31 17.65 3.24 17.65C2.49 17.65 1.76 17.28 1.04 16.56C0.86 16.37 0.86 16.07 1.04 15.88C1.22 15.69 1.51 15.69 1.7 15.87C2.25 16.43 2.76 16.69 3.24 16.69C3.89 16.69 4.49 15.74 5.57 15.74C6.65 15.74 7.2 16.69 7.9 16.69C8.6 16.69 9.08 15.74 10.23 15.74ZM6.23 12.82C7.35 12.82 7.89 13.78 8.56 13.78C9.03 13.78 9.54 13.52 10.1 12.96C10.28 12.78 10.57 12.78 10.76 12.96C10.94 13.15 10.93 13.46 10.75 13.64C10.04 14.37 9.3 14.74 8.55 14.74C7.48 14.74 6.97 13.78 6.23 13.78C5.49 13.78 4.97 14.74 3.9 14.74C2.83 14.74 2.3 13.78 1.57 13.78C1.31 13.78 1.1 13.57 1.1 13.3C1.1 13.04 1.31 12.82 1.57 12.82C2.68 12.82 3.21 13.78 3.9 13.78C4.58 13.78 5.11 12.82 6.23 12.82ZM10.23 10C10.49 10 10.69 10.21 10.69 10.47C10.69 10.72 10.5 10.95 10.23 10.95C9.45 10.95 8.99 11.91 7.9 11.91C6.81 11.91 6.31 10.95 5.57 10.95C4.82 10.95 4.33 11.91 3.24 11.91C2.49 11.91 1.76 11.53 1.04 10.82C0.86 10.63 0.86 10.33 1.04 10.14C1.22 9.95 1.51 9.95 1.7 10.13C2.25 10.69 2.76 10.95 3.24 10.95C3.91 10.95 4.47 10 5.57 10C6.67 10 7.2 10.95 7.9 10.95C8.59 10.95 9.11 10 10.23 10Z" fill="#78C081" fill-opacity="1.000000" fill-rule="nonzero"/>
	</g>
</svg>
