<svg width="32.000000" height="22.015625" viewBox="0 0 32 22.0156" fill="none" xmlns="http://www.w3.org/2000/svg" xmlns:xlink="http://www.w3.org/1999/xlink">
	<desc>
			Created with Pixso.
	</desc>
	<defs/>
	<path id="Vector" d="M0.43 11.93C2.32 13.52 4.47 15.32 8.62 15.32C12.77 15.32 14.92 13.52 16.81 11.93C18.6 10.43 20.15 9.13 23.37 9.13C26.59 9.13 28.14 10.43 29.93 11.93C30.46 12.37 31.24 12.31 31.69 11.8C32.14 11.29 32.08 10.51 31.56 10.07C29.67 8.49 27.52 6.69 23.37 6.69C19.22 6.69 17.07 8.49 15.18 10.07C13.39 11.58 11.84 12.87 8.62 12.87C5.39 12.87 3.85 11.58 2.06 10.07C1.53 9.63 0.75 9.69 0.3 10.21C-0.15 10.72 -0.09 11.49 0.43 11.93Z" fill="#78C081" fill-opacity="1.000000" fill-rule="nonzero"/>
	<path id="Vector" d="M0.43 5.24C2.32 6.83 4.47 8.63 8.62 8.63C12.77 8.63 14.92 6.83 16.81 5.24C18.6 3.74 20.14 2.44 23.37 2.44C26.59 2.44 28.14 3.74 29.93 5.24C30.46 5.68 31.24 5.62 31.69 5.11C32.14 4.6 32.08 3.82 31.56 3.38C29.67 1.8 27.52 0 23.37 0C19.22 0 17.07 1.8 15.18 3.38C13.39 4.89 11.84 6.18 8.62 6.18C5.4 6.18 3.85 4.89 2.06 3.38C1.53 2.94 0.75 3 0.3 3.52C-0.15 4.03 -0.09 4.8 0.43 5.24Z" fill="#78C081" fill-opacity="1.000000" fill-rule="nonzero"/>
	<path id="Vector" d="M31.56 16.76C29.67 15.18 27.52 13.37 23.37 13.37C19.22 13.37 17.07 15.18 15.18 16.76C13.39 18.27 11.84 19.56 8.62 19.56C5.4 19.56 3.85 18.27 2.06 16.76L2.06 16.76C1.53 16.32 0.75 16.38 0.3 16.9C-0.15 17.41 -0.09 18.18 0.43 18.62C2.32 20.21 4.47 22.01 8.62 22.01C12.77 22.01 14.92 20.21 16.81 18.62C18.6 17.12 20.15 15.82 23.37 15.82C26.59 15.82 28.14 17.12 29.93 18.62C30.46 19.06 31.24 19 31.69 18.49C32.14 17.98 32.08 17.2 31.56 16.76Z" fill="#78C081" fill-opacity="1.000000" fill-rule="nonzero"/>
</svg>
