<svg width="16.000000" height="28.019897" viewBox="0 0 16 28.0199" fill="none" xmlns="http://www.w3.org/2000/svg" xmlns:xlink="http://www.w3.org/1999/xlink">
	<desc>
			Created with Pixso.
	</desc>
	<defs/>
	<path id="path1464 (Stroke)" d="M3.18 21.4C3.18 23.24 4.62 24.73 6.4 24.73C8.19 24.73 9.63 23.24 9.63 21.4C9.63 19.56 8.19 18.06 6.4 18.06C4.62 18.06 3.18 19.56 3.18 21.4ZM6.4 23.09C5.5 23.09 4.77 22.33 4.77 21.4C4.77 20.46 5.5 19.7 6.4 19.7C7.31 19.7 8.04 20.46 8.04 21.4C8.04 22.33 7.31 23.09 6.4 23.09Z" fill="#78C081" fill-opacity="1.000000" fill-rule="evenodd"/>
	<path id="path1468 (Stroke)" d="M6.4 19.7C6.84 19.7 7.2 19.33 7.2 18.88L7.2 7.34C7.2 6.89 6.84 6.52 6.4 6.52C5.97 6.52 5.61 6.89 5.61 7.34L5.61 18.88C5.61 19.33 5.97 19.7 6.4 19.7Z" fill="#78C081" fill-opacity="1.000000" fill-rule="evenodd"/>
	<path id="path1472 (Stroke)" d="M6.4 26.37C3.74 26.37 1.59 24.14 1.59 21.4C1.59 19.68 2.42 18.17 3.7 17.27C3.92 17.12 4.05 16.87 4.05 16.6L4.05 4.07C4.05 2.73 5.1 1.64 6.4 1.64C7.71 1.64 8.76 2.73 8.76 4.07L8.76 16.6C8.76 16.87 8.89 17.12 9.11 17.27C10.39 18.17 11.22 19.68 11.22 21.4C11.22 24.14 9.07 26.37 6.4 26.37ZM0 21.4C0 25.05 2.86 28.01 6.4 28.01C9.94 28.01 12.81 25.05 12.81 21.4C12.81 19.28 11.85 17.39 10.35 16.18L10.35 4.07C10.35 1.82 8.58 0 6.4 0C4.23 0 2.46 1.82 2.46 4.07L2.46 16.18C0.96 17.39 0 19.28 0 21.4Z" fill="#78C081" fill-opacity="1.000000" fill-rule="evenodd"/>
	<path id="path1476 (Stroke)" d="M11.94 13.92C11.94 14.38 12.3 14.74 12.74 14.74L15.2 14.74C15.64 14.74 15.99 14.38 15.99 13.92C15.99 13.47 15.64 13.1 15.2 13.1L12.74 13.1C12.3 13.1 11.94 13.47 11.94 13.92Z" fill="#78C081" fill-opacity="1.000000" fill-rule="evenodd"/>
	<path id="path1480 (Stroke)" d="M11.94 10.64C11.94 11.09 12.3 11.46 12.74 11.46L15.2 11.46C15.64 11.46 15.99 11.09 15.99 10.64C15.99 10.18 15.64 9.82 15.2 9.82L12.74 9.82C12.3 9.82 11.94 10.18 11.94 10.64Z" fill="#78C081" fill-opacity="1.000000" fill-rule="evenodd"/>
	<path id="path1484 (Stroke)" d="M11.94 7.35C11.94 7.81 12.3 8.17 12.74 8.17L15.2 8.17C15.64 8.17 15.99 7.81 15.99 7.35C15.99 6.9 15.64 6.53 15.2 6.53L12.74 6.53C12.3 6.53 11.94 6.9 11.94 7.35Z" fill="#78C081" fill-opacity="1.000000" fill-rule="evenodd"/>
	<path id="path1488 (Stroke)" d="M11.94 4.07C11.94 4.52 12.3 4.89 12.74 4.89L15.2 4.89C15.64 4.89 15.99 4.52 15.99 4.07C15.99 3.62 15.64 3.25 15.2 3.25L12.74 3.25C12.3 3.25 11.94 3.62 11.94 4.07Z" fill="#78C081" fill-opacity="1.000000" fill-rule="evenodd"/>
</svg>
