<svg width="28.000000" height="28.000000" viewBox="0 0 28 28" fill="none" xmlns="http://www.w3.org/2000/svg" xmlns:xlink="http://www.w3.org/1999/xlink">
	<desc>
			Created with Pixso.
	</desc>
	<defs>
		<clipPath id="clip86_1588">
			<rect id="green-house 1" rx="-0.500000" width="27.000000" height="27.000000" transform="translate(0.500000 0.500000)" fill="white" fill-opacity="0"/>
		</clipPath>
	</defs>
	<rect id="green-house 1" rx="-0.500000" width="27.000000" height="27.000000" transform="translate(0.500000 0.500000)" fill="#FFFFFF" fill-opacity="0"/>
	<g clip-path="url(#clip86_1588)">
		<path id="Vector" d="M27.61 7.88L14.39 0.1C14.15 -0.04 13.84 -0.04 13.6 0.1L0.38 7.88C0.14 8.02 0 8.27 0 8.55L0 27.22C0 27.65 0.34 28 0.77 28L7.82 28C8.23 27.99 8.57 27.68 8.6 27.27C8.7 25.51 9.18 23.8 10 22.24C10.87 22.82 11.87 23.17 12.92 23.24C13.09 23.26 13.27 23.26 13.44 23.26C15.05 23.28 16.59 22.64 17.71 21.49C18.56 20.35 18.96 18.92 18.81 17.5C18.79 16.11 18.77 14.67 20.77 12.27C20.95 12.05 21 11.74 20.89 11.48C20.78 11.21 20.54 11.03 20.26 10.99C15.43 10.45 9.93 12.81 8.25 16.14C7.4 17.75 7.63 19.73 8.84 21.1C7.91 22.74 7.19 24.12 7 26L2 26L2 9L14 2L26 9L26 26L11.66 26C11.23 26 10.82 26.5 10.82 27C10.82 27.5 11.23 28 11.66 28L27.22 28C27.65 28 28 27.65 28 27.22L28 8.55C28 8.27 27.85 8.02 27.61 7.88ZM9.64 16.84C10.75 14.64 14.56 12.51 18.67 12.47C17.63 13.94 17.13 15.73 17.25 17.53C17.39 18.57 17.13 19.62 16.53 20.48C15.6 21.38 14.32 21.82 13.04 21.69C12.25 21.64 11.48 21.38 10.82 20.94C11.55 19.97 12.49 19.19 13.57 18.64C13.96 18.45 14.11 17.98 13.92 17.59C13.73 17.21 13.26 17.05 12.88 17.25C11.69 17.85 10.64 18.71 9.8 19.75C9.2 18.89 9.14 17.76 9.64 16.84Z" fill="#78C081" fill-opacity="1.000000" fill-rule="nonzero"/>
	</g>
</svg>
