<svg width="28.000000" height="28.000000" viewBox="0 0 28 28" fill="none" xmlns="http://www.w3.org/2000/svg" xmlns:xlink="http://www.w3.org/1999/xlink">
	<desc>
			Created with Pixso.
	</desc>
	<defs/>
	<path id="Vector" d="M6.22 2.35C8.52 0.82 11.23 6.1e-5 13.99 0C17.71 0 21.26 1.48 23.89 4.1C26.51 6.72 27.99 10.28 27.99 14C27.99 16.76 27.17 19.47 25.64 21.77C24.1 24.08 21.91 25.87 19.35 26.93C16.79 27.99 13.98 28.27 11.26 27.73C8.55 27.19 6.05 25.85 4.1 23.89C2.14 21.94 0.8 19.44 0.26 16.73C-0.28 14.01 0 11.2 1.06 8.64C2.12 6.08 3.91 3.89 6.22 2.35Z" fill="#78C081" fill-opacity="1.000000" fill-rule="evenodd"/>
	<path id="Vector" d="M21.94 4.74C21.97 4.79 21.99 4.86 21.99 4.92C22 4.99 21.99 5.05 21.96 5.11C21.94 5.18 21.9 5.23 21.85 5.28L5.45 20.86C5.4 20.9 5.35 20.94 5.29 20.96C5.23 20.98 5.17 21 5.1 21L5.08 21C5.01 20.99 4.94 20.97 4.88 20.95C4.82 20.92 4.76 20.87 4.72 20.82C2.82 18.61 1.86 15.8 2.01 12.95C2.16 10.09 3.43 7.4 5.55 5.38C7.68 3.36 10.52 2.16 13.52 2.01C16.53 1.86 19.48 2.78 21.81 4.58C21.87 4.63 21.91 4.68 21.94 4.74Z" fill="#FFFFFF" fill-opacity="1.000000" fill-rule="evenodd"/>
	<path id="Vector" d="M23.23 7.05C23.29 7.08 23.34 7.12 23.39 7.18C25.08 9.22 26 11.75 26 14.35C25.99 17.44 24.7 20.4 22.4 22.58C20.1 24.76 16.99 25.99 13.74 26C11 26 8.34 25.13 6.18 23.52C6.13 23.47 6.08 23.42 6.05 23.36C6.02 23.31 6 23.24 6 23.17C5.99 23.11 6 23.04 6.03 22.98C6.05 22.92 6.09 22.86 6.14 22.81L22.65 7.13C22.7 7.09 22.75 7.05 22.82 7.03C22.89 7 22.96 6.99 23.03 7C23.1 7 23.16 7.02 23.23 7.05Z" fill="#FFFFFF" fill-opacity="1.000000" fill-rule="evenodd"/>
	<path id="Vector" d="M12 8.21C12 8.44 12.07 8.68 12.2 8.88C12.33 9.08 12.52 9.23 12.74 9.32C12.96 9.42 13.21 9.44 13.44 9.39C13.68 9.35 13.89 9.23 14.06 9.06C14.23 8.89 14.35 8.68 14.39 8.44C14.44 8.21 14.42 7.96 14.32 7.74C14.23 7.52 14.08 7.33 13.88 7.2C13.68 7.07 13.45 7 13.21 7C12.88 7 12.58 7.12 12.35 7.35C12.12 7.58 12 7.88 12 8.21ZM13.48 8.21C13.48 8.26 13.47 8.31 13.44 8.36C13.41 8.41 13.36 8.44 13.31 8.46C13.26 8.48 13.21 8.49 13.15 8.48C13.1 8.47 13.05 8.44 13.01 8.4C12.97 8.36 12.94 8.31 12.93 8.26C12.92 8.21 12.93 8.15 12.95 8.1C12.97 8.05 13.01 8.01 13.05 7.97C13.1 7.94 13.15 7.93 13.21 7.93C13.28 7.93 13.35 7.96 13.4 8.01C13.45 8.06 13.48 8.13 13.48 8.21Z" fill="#78C081" fill-opacity="1.000000" fill-rule="nonzero"/>
	<path id="Vector" d="M22.21 13C21.97 13 21.73 13.07 21.53 13.2C21.33 13.33 21.18 13.52 21.09 13.74C21 13.96 20.97 14.21 21.02 14.44C21.06 14.68 21.18 14.89 21.35 15.06C21.52 15.23 21.73 15.35 21.97 15.39C22.2 15.44 22.45 15.42 22.67 15.32C22.89 15.23 23.08 15.08 23.21 14.88C23.35 14.68 23.42 14.45 23.42 14.21C23.42 13.88 23.29 13.58 23.06 13.35C22.83 13.12 22.53 13 22.21 13ZM22.21 14.48C22.15 14.48 22.1 14.47 22.05 14.44C22.01 14.41 21.97 14.36 21.95 14.31C21.93 14.26 21.92 14.2 21.93 14.15C21.94 14.1 21.97 14.05 22.01 14.01C22.05 13.97 22.1 13.94 22.15 13.93C22.21 13.92 22.26 13.93 22.31 13.95C22.36 13.97 22.41 14.01 22.44 14.05C22.47 14.1 22.48 14.15 22.48 14.21C22.48 14.28 22.45 14.35 22.4 14.4C22.35 14.45 22.28 14.48 22.21 14.48Z" fill="#78C081" fill-opacity="1.000000" fill-rule="nonzero"/>
	<path id="Vector" d="M6.5 9C6 9 5.52 9.14 5.11 9.42C4.69 9.69 4.37 10.08 4.19 10.54C4 11 3.95 11.5 4.04 11.98C4.14 12.47 4.38 12.91 4.73 13.26C5.08 13.61 5.52 13.85 6.01 13.95C6.49 14.04 6.99 13.99 7.45 13.8C7.91 13.62 8.3 13.3 8.57 12.88C8.85 12.47 9 11.99 9 11.5C8.99 10.83 8.73 10.2 8.26 9.73C7.79 9.26 7.16 9 6.5 9ZM6.5 12.62C6.27 12.62 6.05 12.56 5.87 12.43C5.68 12.31 5.54 12.13 5.45 11.93C5.37 11.72 5.35 11.49 5.39 11.28C5.43 11.06 5.54 10.86 5.7 10.7C5.86 10.54 6.06 10.43 6.28 10.39C6.49 10.35 6.72 10.37 6.93 10.45C7.13 10.54 7.31 10.68 7.43 10.87C7.56 11.05 7.62 11.27 7.62 11.5C7.62 11.79 7.5 12.08 7.29 12.29C7.08 12.5 6.79 12.62 6.5 12.62Z" fill="#78C081" fill-opacity="1.000000" fill-rule="nonzero"/>
	<path id="Vector" d="M20.63 20.07L20.39 19.99C20.55 19.48 20.53 18.93 20.32 18.43C20.12 17.94 19.75 17.53 19.28 17.26L19.39 16.76C19.42 16.62 19.39 16.48 19.31 16.36C19.23 16.24 19.11 16.16 18.97 16.13C18.83 16.1 18.68 16.13 18.56 16.21C18.44 16.29 18.36 16.41 18.33 16.54L18.29 16.75C18.06 16.45 17.75 16.22 17.39 16.1C17.04 15.98 16.65 15.96 16.28 16.06C15.92 16.16 15.59 16.36 15.34 16.64C15.1 16.93 14.95 17.28 14.91 17.65C14.85 17.67 14.8 17.7 14.74 17.73L14.41 17.34C14.32 17.24 14.18 17.17 14.04 17.16C13.9 17.15 13.76 17.2 13.65 17.29C13.54 17.38 13.47 17.51 13.46 17.65C13.45 17.79 13.5 17.93 13.59 18.03L13.88 18.37C13.58 18.72 13.38 19.14 13.3 19.6C13.23 20.05 13.29 20.52 13.47 20.94L13.21 21.13C13.1 21.21 13.02 21.34 13 21.48C12.98 21.62 13.02 21.76 13.1 21.87C13.19 21.99 13.32 22.06 13.46 22.08C13.6 22.1 13.74 22.06 13.86 21.98L14.09 21.81C14.42 22.12 14.84 22.34 15.29 22.43C15.74 22.53 16.21 22.5 16.65 22.35L16.72 22.6C16.75 22.74 16.84 22.85 16.97 22.92C17.09 22.99 17.24 23.01 17.38 22.98C17.52 22.94 17.63 22.85 17.71 22.73C17.78 22.61 17.8 22.46 17.76 22.33L17.61 21.76C17.65 21.72 17.7 21.67 17.74 21.63C17.86 21.65 17.98 21.66 18.1 21.66C18.43 21.66 18.75 21.59 19.05 21.46C19.35 21.34 19.62 21.15 19.84 20.92L20.27 21.07C20.34 21.09 20.41 21.1 20.48 21.1C20.55 21.1 20.62 21.08 20.69 21.05C20.75 21.02 20.81 20.98 20.86 20.92C20.9 20.87 20.94 20.81 20.96 20.75C20.99 20.68 21 20.61 20.99 20.54C20.99 20.47 20.97 20.4 20.94 20.34C20.91 20.28 20.87 20.22 20.82 20.17C20.76 20.13 20.7 20.09 20.63 20.07L20.63 20.07ZM18.1 20.6C17.96 20.6 17.82 20.57 17.69 20.53C17.57 20.49 17.45 20.49 17.33 20.53C17.22 20.57 17.12 20.65 17.06 20.75C16.96 20.9 16.83 21.04 16.68 21.15C16.68 21.15 16.67 21.15 16.67 21.16C16.49 21.28 16.28 21.37 16.07 21.4C15.85 21.44 15.63 21.43 15.42 21.37C15.21 21.31 15.01 21.21 14.85 21.07C14.68 20.92 14.55 20.74 14.47 20.55C14.38 20.35 14.34 20.13 14.35 19.92C14.36 19.7 14.42 19.49 14.53 19.3C14.63 19.11 14.78 18.95 14.96 18.82C15.14 18.69 15.34 18.61 15.56 18.57C15.7 18.55 15.82 18.47 15.9 18.35C15.98 18.24 16.02 18.1 15.99 17.96C15.96 17.77 16.01 17.56 16.12 17.4C16.23 17.23 16.41 17.12 16.61 17.08C16.8 17.03 17.01 17.07 17.19 17.17C17.36 17.27 17.49 17.44 17.54 17.63C17.57 17.74 17.64 17.84 17.73 17.91C17.83 17.98 17.94 18.02 18.06 18.02C18.07 18.02 18.09 18.02 18.11 18.02C18.46 18.02 18.79 18.16 19.04 18.4C19.28 18.64 19.42 18.97 19.42 19.31C19.42 19.65 19.28 19.98 19.03 20.22C18.79 20.46 18.45 20.6 18.1 20.6L18.1 20.6Z" fill="#78C081" fill-opacity="1.000000" fill-rule="nonzero"/>
</svg>
