<svg width="22.000000" height="28.000000" viewBox="0 0 22 28" fill="none" xmlns="http://www.w3.org/2000/svg" xmlns:xlink="http://www.w3.org/1999/xlink">
	<desc>
			Created with Pixso.
	</desc>
	<defs>
		<clipPath id="clip86_1598">
			<rect id="humidity 1" rx="-0.500000" width="21.000000" height="27.000000" transform="translate(0.500000 0.500000)" fill="white" fill-opacity="0"/>
		</clipPath>
	</defs>
	<rect id="humidity 1" rx="-0.500000" width="21.000000" height="27.000000" transform="translate(0.500000 0.500000)" fill="#FFFFFF" fill-opacity="0"/>
	<g clip-path="url(#clip86_1598)">
		<path id="Vector" d="M16.09 6.17C14.59 4.34 13.04 2.45 11.79 0.43C11.62 0.16 11.32 0 11 0C10.67 0 10.37 0.16 10.21 0.43C8.96 2.45 7.41 4.34 5.91 6.16C2.87 9.86 0 13.36 0 17.5C0 23.29 4.93 28 11 28C17.06 28 22 23.29 22 17.5C22 13.36 19.13 9.87 16.09 6.17ZM11 26.25C5.94 26.25 1.83 22.32 1.83 17.5C1.83 13.96 4.51 10.7 7.35 7.24C8.59 5.73 9.86 4.19 11 2.53C12.13 4.19 13.4 5.74 14.64 7.25C17.48 10.7 20.16 13.96 20.16 17.5C20.16 22.32 16.05 26.25 11 26.25Z" fill="#78C081" fill-opacity="1.000000" fill-rule="nonzero"/>
		<path id="Vector" d="M8.25 10.5C6.73 10.5 5.5 11.67 5.5 13.12C5.5 14.57 6.73 15.75 8.25 15.75C9.76 15.75 11 14.57 11 13.12C11 11.67 9.76 10.5 8.25 10.5ZM8.25 14C7.74 14 7.33 13.6 7.33 13.12C7.33 12.64 7.74 12.25 8.25 12.25C8.75 12.25 9.16 12.64 9.16 13.12C9.16 13.6 8.75 14 8.25 14Z" fill="#78C081" fill-opacity="1.000000" fill-rule="nonzero"/>
		<path id="Vector" d="M13.75 19.25C12.23 19.25 11 20.42 11 21.87C11 23.32 12.23 24.5 13.75 24.5C15.26 24.5 16.5 23.32 16.5 21.87C16.5 20.42 15.26 19.25 13.75 19.25ZM13.75 22.75C13.24 22.75 12.83 22.35 12.83 21.87C12.83 21.39 13.24 21 13.75 21C14.25 21 14.66 21.39 14.66 21.87C14.66 22.35 14.25 22.75 13.75 22.75Z" fill="#78C081" fill-opacity="1.000000" fill-rule="nonzero"/>
		<path id="Vector" d="M16.23 12.5C15.87 12.16 15.29 12.16 14.93 12.5L5.76 21.25C5.41 21.59 5.41 22.15 5.76 22.49C5.94 22.66 6.18 22.75 6.41 22.75C6.65 22.75 6.88 22.66 7.06 22.49L16.23 13.74C16.58 13.4 16.58 12.84 16.23 12.5Z" fill="#78C081" fill-opacity="1.000000" fill-rule="nonzero"/>
	</g>
</svg>
