<svg width="28.000000" height="24.000000" viewBox="0 0 28 24" fill="none" xmlns="http://www.w3.org/2000/svg" xmlns:xlink="http://www.w3.org/1999/xlink">
	<desc>
			Created with Pixso.
	</desc>
	<defs>
		<clipPath id="clip171_738">
			<rect id="pollution 1" rx="-0.500000" width="27.000000" height="23.000000" transform="translate(0.500000 0.500000)" fill="white" fill-opacity="0"/>
		</clipPath>
	</defs>
	<rect id="pollution 1" rx="-0.500000" width="27.000000" height="23.000000" transform="translate(0.500000 0.500000)" fill="#FFFFFF" fill-opacity="0"/>
	<g clip-path="url(#clip171_738)">
		<path id="Vector (Stroke)" d="M8.58 3.32C9.55 1.35 11.61 0 14 0C16.38 0 18.44 1.35 19.41 3.32C19.66 3.29 19.92 3.28 20.17 3.28C24.49 3.28 28 6.7 28 10.91C28 15.13 24.49 18.55 20.17 18.55L18.34 18.55C18.71 19.99 18.32 21.58 17.17 22.71C15.41 24.42 12.58 24.42 10.82 22.71C9.67 21.58 9.28 19.99 9.65 18.55L7.82 18.55C3.5 18.55 0 15.13 0 10.91C0 6.7 3.5 3.28 7.82 3.28C8.07 3.28 8.33 3.29 8.58 3.32ZM11.56 18.18C11.57 18.17 11.57 18.16 11.58 18.15C11.69 17.98 11.83 17.81 11.98 17.65C12.89 16.77 14.26 16.61 15.34 17.17L11.49 20.93C11.02 20.07 11.04 19.02 11.56 18.18ZM12.65 22.06C13.73 22.63 15.1 22.47 16.01 21.58C16.91 20.69 17.08 19.35 16.5 18.3L12.65 22.06ZM17.55 16.95C17.43 16.8 17.31 16.66 17.17 16.52C15.41 14.81 12.58 14.81 10.82 16.52C10.68 16.66 10.56 16.8 10.44 16.95L7.82 16.95C4.4 16.95 1.64 14.25 1.64 10.91C1.64 7.58 4.4 4.88 7.82 4.88C8.2 4.88 8.58 4.92 8.94 4.98C9.34 5.05 9.73 4.83 9.86 4.46C10.46 2.79 12.09 1.6 14 1.6C15.9 1.6 17.53 2.79 18.13 4.46C18.26 4.83 18.65 5.05 19.05 4.98C19.41 4.92 19.79 4.88 20.17 4.88C23.59 4.88 26.35 7.58 26.35 10.91C26.35 14.25 23.59 16.95 20.17 16.95L17.55 16.95ZM14 8.51C13.55 8.51 13.17 8.88 13.17 9.31L13.17 11.45C13.17 11.89 13.55 12.25 14 12.25C14.44 12.25 14.82 11.89 14.82 11.45L14.82 9.31C14.82 8.88 14.44 8.51 14 8.51ZM11.53 9.31C11.53 7.99 12.64 6.91 14 6.91C15.35 6.91 16.46 7.99 16.46 9.31L16.46 11.45C16.46 12.77 15.35 13.85 14 13.85C12.64 13.85 11.53 12.77 11.53 11.45L11.53 9.31ZM5.63 9.31C5.63 7.99 6.73 6.91 8.09 6.91L9.73 6.91C10.18 6.91 10.55 7.27 10.55 7.71C10.55 8.16 10.18 8.51 9.73 8.51L8.09 8.51C7.64 8.51 7.27 8.87 7.27 9.31L7.27 11.45C7.27 11.89 7.64 12.25 8.09 12.25L9.67 12.25C10.13 12.25 10.5 12.61 10.5 13.05C10.5 13.49 10.13 13.85 9.67 13.85L8.09 13.85C6.73 13.85 5.63 12.77 5.63 11.45L5.63 9.31ZM19.63 11.06C19.49 11.02 19.23 11 18.83 11.1C18.39 11.21 17.94 10.96 17.82 10.53C17.71 10.11 17.97 9.67 18.4 9.55C19.6 9.24 20.73 9.49 21.24 10.38C21.65 11.11 21.45 11.93 20.9 12.52L21.62 12.52C22.08 12.52 22.44 12.87 22.44 13.32C22.44 13.76 22.08 14.12 21.62 14.12L18.34 14.12C17.98 14.12 17.67 13.89 17.56 13.55C17.45 13.22 17.58 12.85 17.88 12.66L19.57 11.53L19.57 11.53C19.72 11.43 19.78 11.32 19.8 11.26C19.82 11.2 19.81 11.17 19.8 11.16C19.79 11.15 19.76 11.09 19.63 11.06Z" fill="#78C081" fill-opacity="1.000000" fill-rule="evenodd"/>
	</g>
</svg>
