<svg width="34.000000" height="34.000000" viewBox="0 0 34 34" fill="none" xmlns="http://www.w3.org/2000/svg" xmlns:xlink="http://www.w3.org/1999/xlink">
	<desc>
			Created with Pixso.
	</desc>
	<defs>
		<clipPath id="clip86_1897">
			<rect id="next 2" rx="-0.500000" width="33.000000" height="33.000000" transform="translate(0.500000 0.500000)" fill="white" fill-opacity="0"/>
		</clipPath>
	</defs>
	<rect id="next 2" rx="-0.500000" width="33.000000" height="33.000000" transform="translate(0.500000 0.500000)" fill="#FFFFFF" fill-opacity="0"/>
	<g clip-path="url(#clip86_1897)">
		<path id="Vector" d="M17 0C7.61 0 0 7.61 0 17C0 26.38 7.61 34 17 34C26.38 34 34 26.38 34 17C34 7.61 26.38 0 17 0ZM21.91 18.36C22 18.3 22.09 18.23 22.18 18.15C22.49 17.83 22.64 17.41 22.64 17C22.64 16.58 22.49 16.16 22.17 15.85C22.09 15.76 22 15.69 21.91 15.63L15.55 9.28C14.93 8.66 13.93 8.66 13.31 9.28C12.69 9.9 12.69 10.91 13.31 11.53L18.78 17L13.28 22.5C12.66 23.12 12.66 24.12 13.28 24.74C13.59 25.05 14 25.21 14.4 25.21C14.81 25.21 15.22 25.05 15.53 24.74L21.91 18.36Z" fill="#5CCD6A" fill-opacity="1.000000" fill-rule="evenodd"/>
		<path id="Vector" d="M22.18 18.15C22.09 18.23 22 18.3 21.91 18.36L15.53 24.74C15.22 25.05 14.81 25.21 14.4 25.21C14 25.21 13.59 25.05 13.28 24.74C12.66 24.12 12.66 23.12 13.28 22.5L18.78 17L13.31 11.53C12.69 10.91 12.69 9.9 13.31 9.28C13.93 8.66 14.93 8.66 15.55 9.28L21.91 15.63C22 15.69 22.09 15.76 22.17 15.85C22.49 16.16 22.64 16.58 22.64 17C22.64 17.41 22.49 17.83 22.18 18.15Z" fill="#FFFFFF" fill-opacity="1.000000" fill-rule="nonzero"/>
	</g>
</svg>
