<svg width="34.000000" height="34.000000" viewBox="0 0 34 34" fill="none" xmlns="http://www.w3.org/2000/svg" xmlns:xlink="http://www.w3.org/1999/xlink">
	<desc>
			Created with Pixso.
	</desc>
	<defs>
		<clipPath id="clip86_1892">
			<rect id="next 1" rx="-0.500000" width="33.000000" height="33.000000" transform="matrix(-1 0 0 1 34.5 0.5)" fill="white" fill-opacity="0"/>
		</clipPath>
	</defs>
	<rect id="next 1" rx="-0.500000" width="33.000000" height="33.000000" transform="matrix(-1 0 0 1 34.5 0.5)" fill="#FFFFFF" fill-opacity="0"/>
	<g clip-path="url(#clip86_1892)">
		<path id="Vector" d="M17 0C26.38 0 34 7.61 34 17C34 26.38 26.38 34 17 34C7.61 34 0 26.38 0 17C0 7.61 7.61 0 17 0ZM12.08 18.36C11.99 18.3 11.9 18.23 11.81 18.15C11.5 17.83 11.35 17.41 11.35 17C11.35 16.58 11.5 16.16 11.82 15.85C11.9 15.76 11.99 15.69 12.08 15.63L18.44 9.28C19.06 8.66 20.06 8.66 20.68 9.28C21.3 9.9 21.3 10.91 20.68 11.53L15.21 17L20.71 22.5C21.33 23.12 21.33 24.12 20.71 24.74C20.4 25.05 19.99 25.21 19.59 25.21C19.18 25.21 18.77 25.05 18.46 24.74L12.08 18.36Z" fill="#FFFFFF" fill-opacity="1.000000" fill-rule="evenodd"/>
		<path id="Vector" d="M11.81 18.15C11.9 18.23 11.99 18.3 12.08 18.36L18.46 24.74C18.77 25.05 19.18 25.21 19.59 25.21C19.99 25.21 20.4 25.05 20.71 24.74C21.33 24.12 21.33 23.12 20.71 22.5L15.21 17L20.68 11.53C21.3 10.91 21.3 9.9 20.68 9.28C20.06 8.66 19.06 8.66 18.44 9.28L12.08 15.63C11.99 15.69 11.9 15.76 11.82 15.85C11.5 16.16 11.35 16.58 11.35 17C11.35 17.41 11.5 17.83 11.81 18.15Z" fill="#D9FADD" fill-opacity="1.000000" fill-rule="nonzero"/>
	</g>
</svg>
