<svg width="25.000000" height="24.999512" viewBox="0 0 25 24.9995" fill="none" xmlns="http://www.w3.org/2000/svg" xmlns:xlink="http://www.w3.org/1999/xlink">
	<desc>
			Created with Pixso.
	</desc>
	<defs/>
	<path id="Vector" d="M14.79 12.5L24.52 2.76C25.15 2.13 25.15 1.1 24.52 0.47C23.89 -0.16 22.86 -0.16 22.23 0.47L12.5 10.2L2.76 0.47C2.13 -0.16 1.1 -0.16 0.47 0.47C-0.16 1.1 -0.16 2.13 0.47 2.76L10.2 12.5L0.47 22.23C-0.16 22.86 -0.16 23.89 0.47 24.52C0.79 24.84 1.2 24.99 1.62 24.99C2.03 24.99 2.44 24.84 2.76 24.52L12.5 14.79L22.23 24.52C22.55 24.84 22.96 24.99 23.37 24.99C23.79 24.99 24.2 24.84 24.52 24.52C25.15 23.89 25.15 22.86 24.52 22.23L14.79 12.5Z" fill="#FFFFFF" fill-opacity="1.000000" fill-rule="nonzero"/>
</svg>
