<svg width="16.998291" height="17.000122" viewBox="0 0 16.9983 17.0001" fill="none" xmlns="http://www.w3.org/2000/svg" xmlns:xlink="http://www.w3.org/1999/xlink">
	<desc>
			Created with Pixso.
	</desc>
	<defs/>
	<path id="Vector" d="M7.67 9.12C5.3 11.31 2.05 10.91 0.7 8.81C-1.03 6.1 1.82 2.32 4.36 5.18C5.1 6.02 6.08 7.93 7.67 7.72L7.67 9.12Z" fill="#D7FFDB" fill-opacity="1.000000" fill-rule="nonzero"/>
	<path id="Vector" d="M9.12 9.32C11.3 11.69 10.91 14.95 8.81 16.29C6.1 18.03 2.32 15.18 5.18 12.63C6.02 11.89 7.93 10.91 7.72 9.32L9.12 9.32Z" fill="#9DFF94" fill-opacity="1.000000" fill-rule="nonzero"/>
	<path id="Vector" d="M12.63 11.81C11.89 10.97 10.91 9.06 9.32 9.27L9.32 7.87C11.69 5.68 14.94 6.08 16.29 8.18C18.02 10.89 15.17 14.67 12.63 11.81Z" fill="#D7FFDB" fill-opacity="1.000000" fill-rule="nonzero"/>
	<path id="Vector" d="M7.87 7.67C5.68 5.3 6.08 2.04 8.18 0.7C10.89 -1.04 14.67 1.82 11.8 4.36C10.97 5.1 9.06 6.08 9.26 7.67L7.87 7.67Z" fill="#9DFF94" fill-opacity="1.000000" fill-rule="nonzero"/>
	<path id="Vector" d="M10.21 8.57C10.21 9.53 9.43 10.31 8.47 10.31C7.5 10.31 6.72 9.53 6.72 8.57C6.72 7.61 7.5 6.83 8.47 6.83C9.43 6.83 10.21 7.61 10.21 8.57Z" fill="#FFFFFF" fill-opacity="1.000000" fill-rule="evenodd"/>
	<path id="Vector" d="M0.16 7.03C0.26 7.04 0.34 6.96 0.35 6.86C0.4 5.74 1.04 4.74 1.9 4.44C2.66 4.16 3.49 4.47 4.23 5.3C4.73 5.87 5.35 6.95 6.23 7.53C6.31 7.58 6.42 7.56 6.47 7.48C6.53 7.4 6.51 7.29 6.42 7.23C5.61 6.69 5.01 5.65 4.49 5.07C3.36 3.79 2.31 3.91 1.78 4.1C0.79 4.45 0.05 5.58 0 6.85C-0.01 6.95 0.07 7.03 0.16 7.03Z" fill="#78C081" fill-opacity="1.000000" fill-rule="nonzero"/>
	<path id="Vector" d="M6.38 9.82C4.77 10.68 2.91 10.58 1.63 9.57C1.55 9.51 1.44 9.53 1.38 9.6C1.32 9.68 1.33 9.79 1.41 9.85C2.17 10.45 3.12 10.76 4.11 10.76C4.92 10.76 5.76 10.55 6.54 10.14C6.63 10.09 6.66 9.98 6.62 9.9C6.57 9.81 6.46 9.78 6.38 9.82Z" fill="#78C081" fill-opacity="1.000000" fill-rule="nonzero"/>
	<path id="Vector" d="M0.4 8.25C0.32 8.29 0.28 8.39 0.32 8.48C0.42 8.7 0.55 8.92 0.69 9.11C0.75 9.18 0.86 9.2 0.94 9.14C1.02 9.08 1.03 8.97 0.97 8.89C0.85 8.73 0.73 8.53 0.64 8.33C0.6 8.24 0.49 8.21 0.4 8.25Z" fill="#78C081" fill-opacity="1.000000" fill-rule="nonzero"/>
	<path id="Vector" d="M8.91 16.44C10.79 15.23 11.32 12.64 10.12 10.43C10.08 10.34 9.97 10.31 9.88 10.35C9.8 10.4 9.77 10.51 9.81 10.59C10.92 12.65 10.44 15.03 8.71 16.14C7.27 17.07 5.48 16.61 4.71 15.6C4.06 14.73 4.28 13.67 5.3 12.76C5.86 12.27 6.88 11.68 7.47 10.85C7.53 10.77 7.51 10.65 7.43 10.6C7.35 10.54 7.24 10.56 7.18 10.64C6.63 11.42 5.63 12 5.07 12.5C3.68 13.73 3.83 15.02 4.43 15.81C5.33 17 7.35 17.44 8.91 16.44Z" fill="#78C081" fill-opacity="1.000000" fill-rule="nonzero"/>
	<path id="Vector" d="M15.6 12.28C14.73 12.93 13.67 12.71 12.76 11.69C12.26 11.12 11.65 10.06 10.78 9.48C10.7 9.42 10.59 9.44 10.54 9.52C10.48 9.6 10.5 9.71 10.58 9.77C11.39 10.31 11.99 11.35 12.49 11.92C13.64 13.21 14.92 13.23 15.81 12.56C16.95 11.7 17.47 9.7 16.44 8.09C15.22 6.18 12.53 5.67 10.32 6.92C10.24 6.97 10.21 7.08 10.26 7.16C10.31 7.25 10.41 7.28 10.5 7.23C12.54 6.07 15.02 6.53 16.14 8.28C17.07 9.72 16.61 11.51 15.6 12.28Z" fill="#78C081" fill-opacity="1.000000" fill-rule="nonzero"/>
	<path id="Vector" d="M8.08 0.55C6.19 1.76 5.68 4.44 6.91 6.65C6.96 6.74 7.07 6.77 7.15 6.72C7.24 6.67 7.27 6.56 7.22 6.48C6.08 4.43 6.54 1.96 8.28 0.85C9.72 -0.08 11.51 0.38 12.28 1.39C12.93 2.26 12.71 3.32 11.69 4.23C11.12 4.73 9.99 5.38 9.42 6.29C9.37 6.37 9.4 6.48 9.48 6.53C9.56 6.59 9.67 6.56 9.72 6.48C10.25 5.63 11.33 5.02 11.92 4.49C13.31 3.26 13.16 1.97 12.56 1.18C11.7 0.04 9.69 -0.48 8.08 0.55Z" fill="#78C081" fill-opacity="1.000000" fill-rule="nonzero"/>
	<path id="Vector" d="M8.47 10.49C9.53 10.49 10.39 9.63 10.39 8.57C10.39 7.51 9.53 6.65 8.47 6.65C7.41 6.65 6.55 7.51 6.55 8.57C6.55 9.63 7.41 10.49 8.47 10.49ZM8.47 7.01C9.33 7.01 10.03 7.71 10.03 8.57C10.03 9.44 9.33 10.14 8.47 10.14C7.6 10.14 6.9 9.44 6.9 8.57C6.9 7.71 7.6 7.01 8.47 7.01Z" fill="#78C081" fill-opacity="1.000000" fill-rule="nonzero"/>
</svg>
