<svg width="32.000000" height="32.000000" viewBox="0 0 32 32" fill="none" xmlns="http://www.w3.org/2000/svg" xmlns:xlink="http://www.w3.org/1999/xlink">
	<desc>
			Created with Pixso.
	</desc>
	<defs>
		<clipPath id="clip86_1397">
			<rect id="pin 1" rx="-0.500000" width="31.000000" height="31.000000" transform="translate(0.500000 0.500000)" fill="white" fill-opacity="0"/>
		</clipPath>
	</defs>
	<rect id="pin 1" rx="-0.500000" width="31.000000" height="31.000000" transform="translate(0.500000 0.500000)" fill="#FFFFFF" fill-opacity="0"/>
	<g clip-path="url(#clip86_1397)">
		<path id="Vector" d="M16 0C12.81 0 9.76 1.26 7.51 3.51C5.26 5.76 4 8.81 4 12C4 20.61 15.18 31.4 15.65 31.86C15.74 31.94 15.87 32 16 32C16.12 32 16.25 31.94 16.34 31.86C16.81 31.4 28 20.61 28 12C27.99 8.81 26.73 5.76 24.48 3.51C22.23 1.26 19.18 0 16 0L16 0ZM16 17.5C14.91 17.5 13.84 17.17 12.94 16.57C12.03 15.96 11.33 15.1 10.91 14.1C10.5 13.09 10.39 11.99 10.6 10.92C10.81 9.86 11.34 8.88 12.11 8.11C12.88 7.34 13.86 6.81 14.92 6.6C15.99 6.39 17.09 6.5 18.1 6.91C19.1 7.33 19.96 8.03 20.57 8.94C21.17 9.84 21.5 10.91 21.5 12C21.49 13.45 20.91 14.85 19.88 15.88C18.85 16.91 17.45 17.49 16 17.5Z" fill="#78C081" fill-opacity="1.000000" fill-rule="nonzero"/>
		<path id="Vector" d="M16 0C12.81 0 9.76 1.26 7.51 3.51C5.26 5.76 4 8.81 4 12C4 20.61 15.18 31.4 15.65 31.86C15.74 31.94 15.87 32 16 32C16.12 32 16.25 31.94 16.34 31.86C16.81 31.4 28 20.61 28 12C27.99 8.81 26.73 5.76 24.48 3.51C22.23 1.26 19.18 0 16 0ZM5.8 7.78Q6.61 5.83 8.22 4.22Q9.83 2.61 11.78 1.8Q13.72 1 15.99 1Q18.27 1 20.21 1.8Q22.16 2.61 23.77 4.22Q25.38 5.83 26.19 7.78Q26.99 9.72 27 12Q27 17.07 21.54 24.39Q18.85 28 16 30.8Q13.14 28 10.45 24.39Q5 17.07 5 12Q5 9.72 5.8 7.78ZM10.97 16.12Q11.56 16.85 12.38 17.4Q13.2 17.95 14.1 18.22Q15.01 18.5 16 18.5Q17.34 18.49 18.49 18.02Q19.64 17.54 20.59 16.59Q21.54 15.64 22.02 14.49Q22.49 13.34 22.5 12Q22.5 11.01 22.22 10.11Q21.95 9.2 21.4 8.38Q20.85 7.56 20.12 6.97Q19.39 6.37 18.48 5.99Q17.57 5.61 16.63 5.52Q15.69 5.43 14.73 5.62Q13.76 5.81 12.93 6.26Q12.1 6.7 11.4 7.4Q10.7 8.1 10.26 8.93Q9.81 9.76 9.62 10.73Q9.43 11.69 9.52 12.63Q9.61 13.57 9.99 14.48Q10.37 15.39 10.97 16.12ZM16 17.5C14.91 17.5 13.84 17.17 12.94 16.57C12.03 15.96 11.33 15.1 10.91 14.1C10.5 13.09 10.39 11.99 10.6 10.92C10.81 9.86 11.34 8.88 12.11 8.11C12.88 7.34 13.86 6.81 14.92 6.6C15.99 6.39 17.09 6.5 18.1 6.91C19.1 7.33 19.96 8.03 20.57 8.94C21.17 9.84 21.5 10.91 21.5 12C21.49 13.45 20.91 14.85 19.88 15.88C18.85 16.91 17.45 17.49 16 17.5Z" fill="#577A5B" fill-opacity="1.000000" fill-rule="evenodd"/>
	</g>
</svg>
