<svg width="195.998047" height="61.000000" viewBox="0 0 195.998 61" fill="none" xmlns="http://www.w3.org/2000/svg" xmlns:xlink="http://www.w3.org/1999/xlink">
	<desc>
			Created with Pixso.
	</desc>
	<defs/>
	<path id="Vector" d="M68.91 60.9C61.57 61.11 53.46 61.41 48.56 56.25C43.42 50.84 42.71 42.71 45.09 35.81C47.24 29.55 53.52 25.94 59.91 23.3C65.93 20.81 72.51 19.6 78.61 21.93C85.23 24.46 90.86 29.31 92.66 35.82C94.53 42.56 92.7 49.95 87.78 55.14C83.15 60.03 75.86 60.71 68.91 60.9Z" fill="#78C081" fill-opacity="0.150000" fill-rule="evenodd"/>
	<path id="Vector" d="M74.03 29.9L74.03 15.39L81.42 15.39C83.22 15.39 84.52 15.77 85.32 16.55C86.14 17.31 86.55 18.54 86.55 20.24C86.55 21.94 86.14 23.17 85.32 23.95C84.52 24.72 83.22 25.11 81.42 25.11L76.96 25.11L76.96 29.9L74.03 29.9ZM76.96 22.37L81.25 22.37C82.08 22.37 82.69 22.21 83.06 21.87C83.45 21.53 83.64 20.98 83.64 20.24C83.64 19.5 83.45 18.97 83.06 18.64C82.69 18.29 82.08 18.12 81.25 18.12L76.96 18.12L76.96 22.37Z" fill="#495E4C" fill-opacity="1.000000" fill-rule="nonzero"/>
	<path id="Vector" d="M91.87 30.08C90.47 30.08 89.44 29.82 88.78 29.3C88.13 28.76 87.8 27.9 87.8 26.73C87.8 25.52 88.16 24.67 88.88 24.15C89.6 23.63 90.76 23.37 92.37 23.37L95.61 23.37C95.55 22.63 95.32 22.11 94.92 21.79C94.54 21.46 93.93 21.29 93.1 21.29C91.75 21.29 90.96 21.77 90.73 22.72L88.03 22.72C88.2 21.4 88.69 20.44 89.5 19.84C90.32 19.23 91.55 18.93 93.2 18.93C95 18.93 96.31 19.3 97.12 20.05C97.94 20.78 98.35 21.97 98.35 23.62L98.35 29.9L95.61 29.9L95.61 28.88C94.82 29.68 93.57 30.08 91.87 30.08ZM90.54 26.6C90.54 27.35 91.21 27.72 92.56 27.72C93.5 27.72 94.2 27.55 94.67 27.22C95.16 26.88 95.47 26.35 95.61 25.63L95.61 25.38L93.1 25.38C91.39 25.38 90.54 25.79 90.54 26.6Z" fill="#495E4C" fill-opacity="1.000000" fill-rule="nonzero"/>
	<path id="Vector" d="M100.27 26.46L102.97 26.46C103.23 27.3 104.11 27.72 105.61 27.72C107.05 27.72 107.77 27.43 107.77 26.85C107.77 26.32 106.86 25.94 105.05 25.69C103.36 25.5 102.16 25.14 101.45 24.61C100.75 24.07 100.4 23.27 100.4 22.21C100.4 21.09 100.77 20.26 101.52 19.74C102.26 19.2 103.45 18.93 105.07 18.93C106.74 18.93 107.99 19.22 108.8 19.8C109.63 20.37 110.13 21.29 110.28 22.56L107.58 22.56C107.43 22.12 107.15 21.8 106.75 21.6C106.36 21.4 105.79 21.29 105.02 21.29C103.71 21.29 103.05 21.56 103.05 22.1C103.05 22.6 103.88 22.96 105.54 23.18C107.37 23.44 108.64 23.82 109.34 24.32C110.05 24.8 110.4 25.57 110.4 26.62C110.4 27.78 110.01 28.65 109.22 29.23C108.44 29.8 107.21 30.08 105.52 30.08C103.86 30.08 102.61 29.79 101.77 29.21C100.92 28.63 100.42 27.71 100.27 26.46Z" fill="#495E4C" fill-opacity="1.000000" fill-rule="nonzero"/>
	<path id="Vector" d="M117.29 30.08C115.39 30.08 114.01 29.65 113.15 28.78C112.31 27.89 111.89 26.47 111.89 24.51C111.89 22.56 112.32 21.14 113.18 20.26C114.03 19.37 115.4 18.93 117.29 18.93C119 18.93 120.29 19.28 121.15 19.99C122.01 20.68 122.51 21.79 122.66 23.33L119.96 23.33C119.81 22.68 119.53 22.21 119.11 21.92C118.7 21.63 118.11 21.48 117.35 21.48C116.39 21.48 115.69 21.72 115.25 22.21C114.82 22.68 114.61 23.44 114.61 24.51C114.61 25.56 114.82 26.32 115.25 26.81C115.69 27.29 116.39 27.53 117.35 27.53C118.82 27.53 119.69 26.92 119.96 25.69L122.66 25.69C122.51 27.22 122.01 28.34 121.15 29.05C120.29 29.74 119 30.08 117.29 30.08Z" fill="#495E4C" fill-opacity="1.000000" fill-rule="nonzero"/>
	<path id="Vector" d="M128.25 30.08C126.85 30.08 125.82 29.82 125.15 29.3C124.5 28.76 124.18 27.9 124.18 26.73C124.18 25.52 124.54 24.67 125.26 24.15C125.98 23.63 127.14 23.37 128.74 23.37L131.98 23.37C131.93 22.63 131.7 22.11 131.3 21.79C130.91 21.46 130.3 21.29 129.47 21.29C128.13 21.29 127.34 21.77 127.1 22.72L124.4 22.72C124.57 21.4 125.06 20.44 125.88 19.84C126.69 19.23 127.93 18.93 129.57 18.93C131.37 18.93 132.68 19.3 133.5 20.05C134.31 20.78 134.72 21.97 134.72 23.62L134.72 29.9L131.98 29.9L131.98 28.88C131.19 29.68 129.95 30.08 128.25 30.08ZM126.92 26.6C126.92 27.35 127.59 27.72 128.93 27.72C129.87 27.72 130.58 27.55 131.05 27.22C131.53 26.88 131.84 26.35 131.98 25.63L131.98 25.38L129.47 25.38C127.77 25.38 126.92 25.79 126.92 26.6Z" fill="#495E4C" fill-opacity="1.000000" fill-rule="nonzero"/>
	<path id="Vector" d="M137.1 29.9L137.1 14.35L139.84 14.35L139.84 29.9L137.1 29.9Z" fill="#495E4C" fill-opacity="1.000000" fill-rule="nonzero"/>
	<path id="Vector" d="M146.91 15.39L150.01 15.39L154.99 26.83L159.95 15.39L163.07 15.39L156.63 29.9L153.35 29.9L146.91 15.39Z" fill="#495E4C" fill-opacity="1.000000" fill-rule="nonzero"/>
	<path id="Vector" d="M164.67 28.76C163.8 27.87 163.37 26.46 163.37 24.51C163.37 22.56 163.8 21.14 164.67 20.26C165.55 19.37 166.96 18.93 168.91 18.93C170.85 18.93 172.25 19.37 173.1 20.26C173.98 21.14 174.41 22.56 174.41 24.51C174.41 24.7 174.4 24.99 174.37 25.38L166.17 25.38C166.35 26.94 167.27 27.72 168.93 27.72C170.18 27.72 171 27.3 171.4 26.46L174.23 26.46C173.95 27.8 173.36 28.74 172.46 29.28C171.56 29.81 170.38 30.08 168.91 30.08C166.96 30.08 165.55 29.64 164.67 28.76ZM168.93 21.29C168.16 21.29 167.54 21.45 167.08 21.77C166.63 22.09 166.34 22.61 166.21 23.35L171.65 23.35C171.53 22.61 171.24 22.09 170.78 21.77C170.34 21.45 169.72 21.29 168.93 21.29Z" fill="#495E4C" fill-opacity="1.000000" fill-rule="nonzero"/>
	<path id="Vector" d="M179.07 29.9L176.33 29.9L176.33 19.12L179.07 19.12L179.07 20.2C179.79 19.35 180.96 18.93 182.56 18.93C184.08 18.93 185.19 19.32 185.88 20.09C186.59 20.87 186.94 22.11 186.94 23.82L186.94 29.9L184.2 29.9L184.2 23.82C184.2 23.01 184 22.41 183.6 22.04C183.21 21.67 182.6 21.48 181.75 21.48C180.8 21.48 180.11 21.72 179.7 22.21C179.28 22.68 179.07 23.44 179.07 24.51L179.07 29.9Z" fill="#495E4C" fill-opacity="1.000000" fill-rule="nonzero"/>
	<path id="Vector" d="M192.86 19.12L195.81 19.12L195.81 21.67L192.86 21.67L192.86 25.81C192.86 26.35 192.98 26.75 193.23 26.99C193.48 27.23 193.9 27.35 194.48 27.35L195.99 27.35L195.99 29.9L194.39 29.9C192.9 29.9 191.81 29.6 191.14 29.01C190.46 28.41 190.12 27.46 190.12 26.14L190.12 21.67L188.54 21.67L188.54 19.12L190.12 19.12L190.12 16.77L192.86 16.77L192.86 19.12Z" fill="#495E4C" fill-opacity="1.000000" fill-rule="nonzero"/>
	<path id="Vector" d="M76.57 45.65L79.5 45.65L79.5 47.35L76.57 47.35L76.57 55.24L74.76 55.24L74.76 47.35L73.06 47.35L73.06 45.65L74.76 45.65L74.76 45.32C74.76 43.95 75.06 42.94 75.66 42.32C76.27 41.69 77.23 41.38 78.56 41.38L79.61 41.38L79.61 43.07L78.65 43.07C77.93 43.07 77.4 43.25 77.07 43.61C76.73 43.96 76.57 44.54 76.57 45.32L76.57 45.65Z" fill="#78C081" fill-opacity="1.000000" fill-rule="nonzero"/>
	<path id="Vector" d="M84.68 55.24L82.87 55.24L82.87 45.65L84.68 45.65L84.68 46.89C85.3 45.97 86.4 45.51 87.96 45.51L88.79 45.51L88.79 47.2L87.44 47.2C86.46 47.2 85.75 47.46 85.32 47.98C84.89 48.48 84.68 49.3 84.68 50.44L84.68 55.24Z" fill="#78C081" fill-opacity="1.000000" fill-rule="nonzero"/>
	<path id="Vector" d="M92.52 54.2C91.76 53.42 91.38 52.16 91.38 50.44C91.38 48.72 91.76 47.47 92.52 46.69C93.3 45.9 94.55 45.51 96.27 45.51C97.98 45.51 99.21 45.9 99.96 46.69C100.72 47.47 101.1 48.72 101.1 50.44C101.1 50.51 101.1 50.6 101.09 50.72C101.09 50.84 101.09 50.94 101.09 51L93.22 51C93.28 51.96 93.56 52.66 94.05 53.12C94.56 53.57 95.3 53.8 96.29 53.8C97.73 53.8 98.64 53.31 99.04 52.32L100.92 52.32C100.66 53.45 100.13 54.25 99.33 54.7C98.54 55.16 97.52 55.38 96.27 55.38C94.55 55.38 93.3 54.99 92.52 54.2ZM96.29 47.09C95.36 47.09 94.65 47.29 94.15 47.7C93.65 48.09 93.36 48.74 93.26 49.63L99.29 49.63C99.2 48.72 98.9 48.07 98.41 47.68C97.93 47.29 97.22 47.09 96.29 47.09Z" fill="#78C081" fill-opacity="1.000000" fill-rule="nonzero"/>
	<path id="Vector" d="M104.28 52.32L106.07 52.32C106.23 52.84 106.54 53.22 106.99 53.45C107.45 53.68 108.09 53.8 108.93 53.8C110.57 53.8 111.39 53.41 111.39 52.62C111.39 52.26 111.16 51.98 110.72 51.77C110.28 51.56 109.57 51.38 108.58 51.24C107.07 51.04 106 50.72 105.37 50.28C104.75 49.82 104.45 49.16 104.45 48.29C104.45 47.35 104.77 46.66 105.42 46.21C106.08 45.74 107.1 45.51 108.51 45.51C109.91 45.51 110.97 45.75 111.68 46.24C112.39 46.72 112.84 47.5 113.01 48.57L111.22 48.57C111.06 48.05 110.76 47.67 110.33 47.44C109.9 47.21 109.28 47.09 108.47 47.09C106.96 47.09 106.2 47.47 106.2 48.22C106.2 48.56 106.42 48.84 106.85 49.04C107.28 49.24 107.96 49.41 108.89 49.56C110.48 49.81 111.58 50.14 112.2 50.56C112.83 50.97 113.14 51.61 113.14 52.47C113.14 54.41 111.72 55.38 108.88 55.38C107.46 55.38 106.38 55.14 105.65 54.65C104.91 54.15 104.45 53.38 104.28 52.32Z" fill="#78C081" fill-opacity="1.000000" fill-rule="nonzero"/>
	<path id="Vector" d="M116.83 41.41L118.64 41.41L118.64 46.94C119.31 45.99 120.47 45.51 122.13 45.51C123.52 45.51 124.54 45.84 125.18 46.52C125.82 47.2 126.14 48.27 126.14 49.74L126.14 55.24L124.35 55.24L124.35 49.74C124.35 48.86 124.12 48.22 123.68 47.81C123.24 47.4 122.55 47.2 121.61 47.2C120.57 47.2 119.81 47.46 119.34 47.98C118.88 48.48 118.64 49.3 118.64 50.44L118.64 55.24L116.83 55.24L116.83 41.41Z" fill="#78C081" fill-opacity="1.000000" fill-rule="nonzero"/>
	<path id="Vector" d="M140.14 55.38C138.86 55.38 137.93 55.16 137.34 54.7C136.75 54.25 136.45 53.52 136.45 52.51C136.45 51.46 136.78 50.72 137.43 50.28C138.09 49.82 139.16 49.6 140.62 49.6L143.89 49.6C143.89 48.72 143.67 48.09 143.22 47.7C142.78 47.29 142.07 47.09 141.1 47.09C140.33 47.09 139.73 47.22 139.31 47.48C138.89 47.72 138.61 48.12 138.46 48.68L136.67 48.68C136.84 47.57 137.29 46.77 138 46.26C138.71 45.76 139.77 45.51 141.17 45.51C142.75 45.51 143.89 45.83 144.61 46.48C145.33 47.12 145.7 48.15 145.7 49.56L145.7 55.24L143.89 55.24L143.89 54C143.16 54.92 141.91 55.38 140.14 55.38ZM138.26 52.43C138.26 52.91 138.44 53.26 138.81 53.49C139.19 53.69 139.78 53.8 140.57 53.8C141.61 53.8 142.39 53.61 142.91 53.23C143.44 52.85 143.76 52.24 143.89 51.4L143.89 50.96L141.08 50.96C139.2 50.96 138.26 51.45 138.26 52.43Z" fill="#78C081" fill-opacity="1.000000" fill-rule="nonzero"/>
	<path id="Vector" d="M149.87 55.24L149.87 45.65L151.67 45.65L151.67 55.24L149.87 55.24ZM149.85 43.79C149.66 43.61 149.57 43.3 149.57 42.87C149.57 42.44 149.66 42.13 149.85 41.95C150.03 41.77 150.34 41.67 150.77 41.67C151.2 41.67 151.51 41.77 151.69 41.95C151.88 42.13 151.97 42.44 151.97 42.87C151.97 43.3 151.88 43.61 151.69 43.79C151.51 43.98 151.2 44.07 150.77 44.07C150.34 44.07 150.03 43.98 149.85 43.79Z" fill="#78C081" fill-opacity="1.000000" fill-rule="nonzero"/>
	<path id="Vector" d="M157.69 55.24L155.88 55.24L155.88 45.65L157.69 45.65L157.69 46.89C158.32 45.97 159.41 45.51 160.98 45.51L161.81 45.51L161.81 47.2L160.46 47.2C159.48 47.2 158.77 47.46 158.34 47.98C157.91 48.48 157.69 49.3 157.69 50.44L157.69 55.24Z" fill="#78C081" fill-opacity="1.000000" fill-rule="nonzero"/>
	<path id="Vector" d="M28.72 0.89C28.72 0.4 29.12 0 29.61 0C30.11 0 30.51 0.4 30.51 0.89L30.51 11.15C30.6 11.23 30.67 11.32 30.72 11.43L33.52 17.07C33.52 15.97 33.52 14.89 33.53 13.85C33.53 13.63 33.53 13.41 33.53 13.17C33.52 12.93 33.52 12.68 33.52 12.42C33.52 11.51 33.55 10.56 33.74 9.72C34.28 6.76 36.67 4.74 39.83 4.92C40.3 4.92 40.49 4.97 40.82 4.99C41.41 5.09 41.96 5.29 42.48 5.57C48.53 8.68 53.3 13.74 55.95 19.9C56.88 22.28 57.62 24.73 58.18 27.23C58.53 28.78 59.23 28.81 59.77 38.97C59.02 33.41 56.84 28.78 55.64 25.82C55.12 24.54 54.17 22.69 53.36 21.06C50.59 15.86 46.17 11.66 40.76 9.09C39.49 8.49 38.71 8.73 38.24 9.51C37.87 10.11 37.79 10.98 37.79 11.85C37.79 12.2 37.8 12.55 37.81 12.88C37.83 13.18 37.84 13.47 37.84 13.74C37.84 13.77 37.84 13.8 37.84 13.83C37.86 15.27 37.86 16.92 37.86 18.65C37.86 20.45 37.86 22.33 37.85 24.14C37.84 25.79 37.84 27.38 37.84 28.78C37.84 33.16 37.71 39.37 37.61 43.69C37.58 44.09 37.57 44.49 37.57 44.89C37.57 45.64 37.61 46.38 37.69 47.12C38.04 50.27 39.29 53.66 42.31 55.17C43.29 55.69 44.49 55.89 45.59 56.11C46.79 56.34 48.01 56.5 49.24 56.59C52.67 56.8 54.45 56.56 56.18 54.6C56 54.25 55.81 53.92 55.62 53.59C55.33 53.09 55.05 52.61 54.74 52.12C54.44 51.64 54.12 51.17 53.81 50.71C53.73 50.59 53.64 50.48 53.56 50.36C53.47 50.25 53.38 50.14 53.29 50.02C53.19 49.91 53.09 49.8 52.98 49.69C52.93 49.63 52.88 49.58 52.82 49.53C52.76 49.47 52.7 49.42 52.65 49.36C53.01 49.43 53.36 49.56 53.66 49.73C53.81 49.81 53.96 49.9 54.1 50C54.24 50.1 54.37 50.2 54.49 50.31C54.99 50.73 55.4 51.21 55.72 51.73C56.04 52.25 56.27 52.79 56.42 53.36C56.5 53.62 56.54 53.88 56.55 54.15C56.92 53.67 57.3 53.12 57.69 52.46C59.45 48.05 60.32 47.27 62.95 45.71C60.32 48.31 59.69 49.93 59.23 51.52C58.53 53.95 57.54 56.15 55.13 57.45C52.06 58.92 48.53 58.78 45.22 58.55C38.57 58.28 35.09 53.63 34.05 47.61C33.84 46.35 33.74 45.08 33.74 43.8C33.74 43.74 33.74 43.67 33.74 43.61C33.67 41.13 33.64 38.64 33.59 36.16C33.53 32.14 33.5 27.58 33.5 23.11C33.5 22.41 33.5 21.71 33.5 21.01C33.45 20.94 33.39 20.87 33.35 20.79L29.65 13.3L26.32 20.02C26.3 28.52 26.21 37.23 25.96 45.59C25.56 51.57 22.53 57.78 15.73 58.42C11.99 58.81 6.3 59.18 3.41 56.45C1.58 54.71 0.17 52.32 0.17 49.81C0.17 49.61 0.18 49.4 0.2 49.2C0.48 52.08 2.48 54.57 4.95 56.01C6.97 56.89 9.26 56.78 11.45 56.59C13.32 56.37 15.25 56.12 17.02 55.49C19.78 54.4 21.3 51.72 21.9 48.96C22.16 47.8 22.3 46.61 22.32 45.42L22.23 41.59C22.11 36.34 22.05 31.09 22 25.84C21.98 24.24 21.98 22.08 21.98 19.86C21.98 17 21.99 14.02 22 12.01L21.98 11.22L21.88 10.51C21.57 9.02 20.81 8.92 19.43 9.04C18.05 9.15 15.5 11.33 15.5 11.33C15.43 11.38 15.35 11.44 15.27 11.5C14.86 11.8 14.36 12.17 14.02 12.46C10.31 15.38 7.45 19.19 5.74 23.53C2.57 31.76 1.19 40.46 0.2 49.2C0.07 47.17 0 45.12 0 43.08C0 36.49 0.73 29.89 2.52 23.52C2.56 23.38 2.61 23.22 2.66 23.05C2.81 22.55 2.98 21.98 3.14 21.57C3.22 21.37 3.31 21.13 3.4 20.88C3.56 20.44 3.73 19.97 3.9 19.62C5.64 15.77 8.21 12.33 11.45 9.55C13.06 8.13 14.84 6.9 16.74 5.87C17.32 5.54 17.94 5.28 18.58 5.07C21.74 4.43 24.89 5.64 25.9 9.02C26.29 10.13 26.32 11.5 26.32 12.78C26.32 12.89 26.32 13 26.32 13.12L26.32 13.12C26.32 13.23 26.32 13.34 26.32 13.44C26.32 13.65 26.32 13.85 26.32 14.04C26.32 14.68 26.32 15.32 26.32 15.97L28.57 11.43C28.61 11.35 28.66 11.28 28.72 11.21L28.72 0.89ZM57.41 49C57.18 48.62 57.02 48.19 56.94 47.75C56.87 47.42 56.84 47.08 56.84 46.75C56.84 46.63 56.85 46.52 56.85 46.4C56.93 45.51 57.15 44.66 57.5 43.88C57.84 43.09 58.28 42.37 58.82 41.75C59.1 41.43 59.42 41.15 59.76 40.92C60.1 40.7 60.46 40.51 60.83 40.36C61.2 40.2 61.57 40.08 61.93 39.97C62.3 39.85 62.66 39.76 63.03 39.66C63.75 39.47 64.46 39.28 65.13 39.04C65.78 38.82 66.38 38.49 66.93 38.07C67.51 37.63 67.98 37.03 68.3 36.33C68.54 35.73 68.74 35.11 68.95 34.5C68.95 34.53 68.94 34.56 68.94 34.59C68.94 34.75 69.01 35.02 69.06 35.24C69.09 35.35 69.12 35.45 69.13 35.52C69.29 36.51 69.37 37.51 69.37 38.5C69.37 38.65 69.37 38.79 69.36 38.94C69.36 39.68 69.3 40.42 69.2 41.15L69.16 41.43L69 42.23C68.93 42.58 68.85 42.93 68.76 43.29C68.56 44.01 68.26 44.68 67.87 45.27C67.68 45.57 67.46 45.84 67.23 46.09C67 46.34 66.76 46.57 66.52 46.78C66.03 47.21 65.52 47.6 64.97 47.94C63.89 48.62 62.71 49.09 61.47 49.34C62.59 48.82 63.64 48.16 64.6 47.35C65.07 46.96 65.51 46.53 65.93 46.06C66.35 45.62 66.71 45.13 67.03 44.59C67.32 44.05 67.53 43.46 67.65 42.83C67.72 42.51 67.78 42.18 67.83 41.85L67.9 41.33L67.94 41.08L67.97 40.84C68.02 40.24 68.05 39.64 68.05 39.03L68.05 39.01C67.99 39.11 67.9 39.22 67.78 39.32C67.12 39.83 66.39 40.21 65.61 40.46C64.86 40.71 64.11 40.86 63.38 41.03C62.65 41.19 61.93 41.33 61.26 41.55C60.93 41.65 60.61 41.79 60.31 41.95C60.01 42.12 59.73 42.32 59.48 42.57C58.95 43.07 58.49 43.66 58.11 44.32C57.72 44.98 57.43 45.72 57.25 46.5C57.17 46.82 57.14 47.14 57.14 47.47C57.14 47.98 57.23 48.5 57.41 49ZM56.19 49.33C55.94 48.73 55.52 48.2 54.99 47.79C54.47 47.39 53.89 47.08 53.25 46.88C52.62 46.68 51.96 46.55 51.29 46.48C50.83 46.43 50.36 46.4 49.88 46.37C49.97 47.01 50.07 47.66 50.14 48.31C50.19 48.74 50.23 49.17 50.3 49.57C50.33 49.77 50.37 49.96 50.42 50.15C50.48 50.34 50.54 50.53 50.62 50.71C50.95 51.44 51.48 52.08 52.15 52.56C52.86 53.07 53.7 53.4 54.58 53.53C53.63 53.64 52.66 53.46 51.83 53.03C50.95 52.59 50.24 51.91 49.78 51.09C49.66 50.88 49.56 50.66 49.48 50.44C49.4 50.22 49.34 49.99 49.3 49.76C49.19 49.3 49.14 48.88 49.07 48.46C48.94 47.6 48.82 46.75 48.71 45.9L48.63 45.26L49.3 45.31C50.02 45.36 50.74 45.45 51.46 45.57C52.19 45.69 52.9 45.9 53.57 46.2C54.25 46.5 54.85 46.94 55.33 47.48C55.81 48 56.11 48.65 56.19 49.33Z" fill="#78C081" fill-opacity="1.000000" fill-rule="evenodd"/>
</svg>
