<svg width="32.000000" height="32.000000" viewBox="0 0 32 32" fill="none" xmlns="http://www.w3.org/2000/svg" xmlns:xlink="http://www.w3.org/1999/xlink">
	<desc>
			Created with Pixso.
	</desc>
	<defs>
		<clipPath id="clip86_1400">
			<rect id="telephone-handle-silhouette 1" rx="-0.500000" width="31.000000" height="31.000000" transform="translate(0.500000 0.500000)" fill="white" fill-opacity="0"/>
		</clipPath>
	</defs>
	<rect id="telephone-handle-silhouette 1" rx="-0.500000" width="31.000000" height="31.000000" transform="translate(0.500000 0.500000)" fill="#FFFFFF" fill-opacity="0"/>
	<g clip-path="url(#clip86_1400)">
		<path id="Vector" d="M31.93 24.79C31.84 24.52 31.26 24.11 30.2 23.58C29.91 23.42 29.5 23.19 28.97 22.9C28.44 22.62 27.96 22.35 27.53 22.11C27.1 21.86 26.69 21.63 26.31 21.4C26.25 21.36 26.06 21.23 25.74 21.01C25.43 20.79 25.16 20.62 24.94 20.52C24.72 20.41 24.5 20.36 24.29 20.36C23.99 20.36 23.61 20.57 23.15 21.01C22.7 21.44 22.28 21.91 21.9 22.41C21.53 22.92 21.12 23.39 20.7 23.82C20.28 24.26 19.93 24.47 19.65 24.47C19.52 24.47 19.35 24.43 19.14 24.36C18.94 24.28 18.78 24.22 18.68 24.17C18.57 24.11 18.39 24.01 18.13 23.85C17.87 23.69 17.73 23.6 17.7 23.58C15.62 22.43 13.84 21.11 12.36 19.63C10.87 18.15 9.56 16.37 8.4 14.29C8.39 14.26 8.3 14.12 8.14 13.86C7.98 13.6 7.88 13.42 7.82 13.31C7.77 13.21 7.71 13.05 7.63 12.85C7.56 12.64 7.52 12.47 7.52 12.33C7.52 12.06 7.73 11.71 8.17 11.29C8.6 10.87 9.07 10.46 9.57 10.09C10.08 9.71 10.55 9.29 10.98 8.84C11.42 8.38 11.63 8 11.63 7.7C11.63 7.49 11.58 7.27 11.47 7.05C11.37 6.83 11.2 6.56 10.98 6.24C10.76 5.93 10.63 5.74 10.59 5.68C10.36 5.3 10.12 4.89 9.88 4.46C9.64 4.03 9.37 3.55 9.09 3.02C8.8 2.49 8.57 2.08 8.4 1.79C7.87 0.73 7.47 0.15 7.2 0.06C7.09 0.02 6.93 0 6.72 0C6.31 0 5.78 0.07 5.12 0.22C4.46 0.37 3.94 0.53 3.56 0.7C2.81 1.02 2 1.94 1.15 3.47C0.38 4.9 0 6.31 0 7.7C0 8.11 0.02 8.51 0.08 8.89C0.13 9.28 0.22 9.71 0.36 10.2C0.5 10.68 0.61 11.04 0.69 11.28C0.77 11.51 0.93 11.93 1.15 12.54C1.38 13.15 1.52 13.52 1.56 13.65C2.09 15.14 2.72 16.46 3.45 17.63C4.65 19.57 6.28 21.57 8.35 23.64C10.42 25.71 12.42 27.34 14.36 28.54C15.52 29.27 16.85 29.9 18.34 30.43C18.47 30.47 18.84 30.61 19.45 30.84C20.06 31.06 20.48 31.22 20.71 31.3C20.95 31.38 21.31 31.49 21.79 31.63C22.28 31.77 22.71 31.86 23.1 31.92C23.48 31.97 23.88 32 24.29 32C25.68 32 27.09 31.61 28.52 30.84C30.05 29.99 30.97 29.18 31.29 28.43C31.46 28.05 31.61 27.53 31.77 26.87C31.92 26.21 31.99 25.68 31.99 25.27C31.99 25.06 31.97 24.9 31.93 24.79Z" fill="#78C081" fill-opacity="1.000000" fill-rule="nonzero"/>
		<path id="Vector" d="M30.2 23.58C29.91 23.42 29.5 23.19 28.97 22.9C28.44 22.62 27.96 22.35 27.53 22.11C27.1 21.86 26.69 21.63 26.31 21.4C26.25 21.36 26.06 21.23 25.74 21.01C25.43 20.79 25.16 20.62 24.94 20.52C24.72 20.41 24.5 20.36 24.29 20.36C23.99 20.36 23.61 20.57 23.15 21.01C22.7 21.44 22.28 21.91 21.9 22.41C21.53 22.92 21.12 23.39 20.7 23.82C20.28 24.26 19.93 24.47 19.65 24.47C19.52 24.47 19.35 24.43 19.14 24.36C18.94 24.28 18.78 24.22 18.68 24.17C18.57 24.11 18.39 24.01 18.13 23.85C17.87 23.69 17.73 23.6 17.7 23.58C15.62 22.43 13.84 21.11 12.36 19.63C10.87 18.15 9.56 16.37 8.4 14.29C8.39 14.26 8.3 14.12 8.14 13.86C7.98 13.6 7.88 13.42 7.82 13.31C7.77 13.21 7.71 13.05 7.63 12.85C7.56 12.64 7.52 12.47 7.52 12.33C7.52 12.06 7.73 11.71 8.17 11.29C8.6 10.87 9.07 10.46 9.57 10.09C10.08 9.71 10.55 9.29 10.98 8.84C11.42 8.38 11.63 8 11.63 7.7C11.63 7.49 11.58 7.27 11.47 7.05C11.37 6.83 11.2 6.56 10.98 6.24C10.76 5.93 10.63 5.74 10.59 5.68C10.36 5.3 10.12 4.89 9.88 4.46C9.64 4.03 9.37 3.55 9.09 3.02C8.8 2.49 8.57 2.08 8.4 1.79C7.87 0.73 7.47 0.15 7.2 0.06C7.09 0.02 6.93 0 6.72 0C6.31 0 5.78 0.07 5.12 0.22C4.46 0.37 3.94 0.53 3.56 0.7C2.81 1.02 2 1.94 1.15 3.47C0.38 4.9 0 6.31 0 7.7C0 8.11 0.02 8.51 0.08 8.89C0.13 9.28 0.22 9.71 0.36 10.2C0.5 10.68 0.61 11.04 0.69 11.28C0.77 11.51 0.93 11.93 1.15 12.54C1.38 13.15 1.52 13.52 1.56 13.65C2.09 15.14 2.72 16.46 3.45 17.63C4.65 19.57 6.28 21.57 8.35 23.64C10.42 25.71 12.42 27.34 14.36 28.54C15.52 29.27 16.85 29.9 18.34 30.43C18.47 30.47 18.84 30.61 19.45 30.84C20.06 31.06 20.48 31.22 20.71 31.3C20.95 31.38 21.31 31.49 21.79 31.63C22.28 31.77 22.71 31.86 23.1 31.92C23.48 31.97 23.88 32 24.29 32C25.68 32 27.09 31.61 28.52 30.84C30.05 29.99 30.97 29.18 31.29 28.43C31.46 28.05 31.61 27.53 31.77 26.87C31.92 26.21 31.99 25.68 31.99 25.27C31.99 25.06 31.97 24.9 31.93 24.79C31.84 24.52 31.26 24.11 30.2 23.58ZM18.66 29.48Q16.54 28.72 14.88 27.69Q12.07 25.96 9.05 22.93Q6.03 19.91 4.3 17.1Q3.26 15.44 2.51 13.34Q2.44 13.12 2.09 12.19L1.63 10.94Q1.52 10.62 1.32 9.93Q1.14 9.27 1.07 8.76Q1 8.24 1 7.7Q1 5.86 2.03 3.96Q3.13 1.96 3.97 1.61Q4.45 1.4 5.35 1.2Q6.22 1 6.72 1L6.81 0.98L6.85 1L6.89 1.01Q6.9 1.02 7.51 2.24L7.52 2.27L7.54 2.29Q7.78 2.7 8.21 3.5L9.01 4.95Q9.39 5.62 9.73 6.19L9.75 6.23L9.79 6.28Q9.84 6.35 10.16 6.81Q10.45 7.23 10.57 7.49Q10.63 7.61 10.63 7.7Q10.63 7.75 10.26 8.15Q10.03 8.39 9.79 8.61Q9.4 8.97 8.98 9.28Q8.16 9.89 7.47 10.58Q6.52 11.51 6.52 12.33Q6.52 12.72 6.69 13.19Q6.83 13.55 6.93 13.76Q7.03 13.96 7.29 14.38Q7.51 14.73 7.51 14.74L7.52 14.76L7.53 14.77Q9.32 18.01 11.65 20.34Q13.98 22.66 17.21 24.46L17.23 24.47L17.25 24.48Q17.25 24.48 17.61 24.7Q18.02 24.96 18.24 25.06Q18.45 25.17 18.8 25.3Q19.27 25.47 19.65 25.47Q20.48 25.47 21.41 24.52Q22.1 23.82 22.71 23.01Q23.01 22.61 23.35 22.24Q23.59 21.98 23.84 21.73Q24.24 21.36 24.29 21.36Q24.38 21.36 24.5 21.42Q24.76 21.54 25.18 21.83Q25.64 22.15 25.71 22.2L25.75 22.23L25.8 22.26Q26.39 22.61 27.05 22.98L28.49 23.78Q29.3 24.22 29.7 24.45L29.72 24.47L29.75 24.48Q30.97 25.09 30.98 25.1L30.99 25.14L31.01 25.18L30.99 25.27Q30.99 25.77 30.79 26.65Q30.59 27.55 30.37 28.04Q30.02 28.86 28.04 29.96Q26.13 31 24.29 31Q23.75 31 23.23 30.93Q22.72 30.85 22.06 30.67Q21.36 30.47 21.06 30.36L19.8 29.9Q18.9 29.56 18.66 29.48Z" fill="#577A5B" fill-opacity="1.000000" fill-rule="evenodd"/>
	</g>
</svg>
