<svg width="33.000244" height="33.000488" viewBox="0 0 33.0002 33.0005" fill="none" xmlns="http://www.w3.org/2000/svg" xmlns:xlink="http://www.w3.org/1999/xlink">
	<defs/>
	<path id="Shape_281_" d="M16.5 14.73C15.52 14.73 14.72 15.52 14.72 16.49C14.72 17.47 15.51 18.26 16.49 18.27L16.49 18.27C17.47 18.27 18.26 17.48 18.26 16.5C18.26 15.52 17.47 14.73 16.5 14.73Z" fill="#FFFFFF" fill-opacity="1.000000" fill-rule="nonzero"/>
	<path id="Shape_280_" d="M16.5 11.78L16.5 11.78C13.89 11.78 11.78 13.88 11.77 16.49C11.77 19.09 13.88 21.21 16.48 21.21C17.74 21.23 18.95 20.73 19.82 19.83C21.18 18.49 21.58 16.46 20.86 14.7C20.13 12.93 18.41 11.78 16.5 11.78ZM16.49 19.44L16.48 19.44C14.85 19.44 13.53 18.12 13.53 16.49C13.53 14.86 14.86 13.54 16.49 13.54C18.12 13.54 19.44 14.86 19.44 16.49C19.44 18.12 18.12 19.44 16.49 19.44Z" fill="#FFFFFF" fill-opacity="1.000000" fill-rule="nonzero"/>
	<path id="Shape_279_" d="M5.66 20.62C6.43 19.83 7.33 19.19 8.32 18.71C9.09 18.28 9.96 18.08 10.83 18.11C10.25 16.07 10.81 13.88 12.3 12.37C10.62 10.81 8.47 9.84 6.19 9.6C4.76 9.42 3.34 9.9 2.31 10.91C1.55 11.67 0.96 12.59 0.57 13.6C-0.23 15.36 -0.19 17.39 0.67 19.13C0.74 19.26 0.81 19.37 0.88 19.49C1.56 23.09 3.47 26.35 6.29 28.7C6.45 28.84 6.67 28.88 6.87 28.81C7.07 28.74 7.22 28.57 7.26 28.36C7.29 28.14 7.21 27.93 7.04 27.8C4.91 26.02 3.33 23.67 2.48 21.02C2.58 21.08 2.68 21.12 2.78 21.16C3.76 21.62 4.92 21.4 5.66 20.62Z" fill="#FFFFFF" fill-opacity="1.000000" fill-rule="nonzero"/>
	<path id="Shape_278_" d="M32.42 19.4C33.22 17.64 33.18 15.6 32.31 13.87C32.25 13.73 32.18 13.61 32.11 13.48C31.42 9.89 29.52 6.65 26.71 4.3C26.55 4.16 26.33 4.12 26.13 4.19C25.93 4.26 25.78 4.44 25.75 4.65C25.71 4.86 25.79 5.07 25.95 5.2C28.08 6.98 29.65 9.32 30.5 11.95C30.41 11.91 30.31 11.87 30.21 11.83C29.24 11.38 28.08 11.6 27.33 12.38C26.56 13.16 25.66 13.81 24.67 14.29C23.91 14.71 23.04 14.92 22.16 14.89C22.75 16.93 22.19 19.13 20.69 20.63C22.37 22.19 24.52 23.16 26.8 23.4C28.22 23.58 29.66 23.1 30.68 22.09C31.44 21.33 32.04 20.41 32.42 19.4Z" fill="#FFFFFF" fill-opacity="1.000000" fill-rule="nonzero"/>
	<path id="Shape_277_" d="M13.87 0.68C13.74 0.74 13.63 0.81 13.51 0.87C9.9 1.55 6.64 3.46 4.29 6.29C4.15 6.45 4.11 6.67 4.18 6.87C4.26 7.07 4.43 7.21 4.63 7.25C4.84 7.28 5.05 7.21 5.19 7.05C6.97 4.92 9.31 3.33 11.95 2.48C11.9 2.58 11.86 2.68 11.82 2.78C11.38 3.76 11.6 4.92 12.38 5.66C13.16 6.44 13.8 7.34 14.28 8.32C14.71 9.09 14.92 9.96 14.89 10.84C15.41 10.68 15.95 10.61 16.5 10.6L16.5 10.6C18.05 10.61 19.53 11.21 20.62 12.3C22.18 10.62 23.16 8.48 23.4 6.2C23.58 4.77 23.1 3.34 22.09 2.32C21.32 1.56 20.41 0.96 19.4 0.57C17.64 -0.23 15.6 -0.19 13.87 0.68Z" fill="#FFFFFF" fill-opacity="1.000000" fill-rule="nonzero"/>
	<path id="Shape_276_" d="M13.59 32.42C15.36 33.22 17.39 33.18 19.13 32.31C19.26 32.25 19.37 32.18 19.49 32.11C23.09 31.43 26.35 29.52 28.7 26.71C28.84 26.55 28.88 26.32 28.81 26.12C28.74 25.92 28.56 25.78 28.35 25.74C28.14 25.71 27.92 25.79 27.79 25.96C26.01 28.08 23.67 29.66 21.03 30.5C21.08 30.41 21.12 30.31 21.16 30.21C21.61 29.23 21.39 28.08 20.61 27.33C19.83 26.56 19.19 25.66 18.71 24.67C18.29 23.91 18.08 23.04 18.11 22.16C17.58 22.31 17.04 22.39 16.49 22.39L16.48 22.39C14.94 22.39 13.46 21.78 12.36 20.69C10.81 22.38 9.83 24.52 9.59 26.8C9.41 28.22 9.9 29.66 10.9 30.68C11.67 31.44 12.59 32.04 13.59 32.42Z" fill="#FFFFFF" fill-opacity="1.000000" fill-rule="nonzero"/>
</svg>
